<svg id="e16ffea8-e3a1-4669-acae-692f410ab32b" data-name="Livello 1" xmlns="http://www.w3.org/2000/svg" viewBox="0 0 25 25"><path d="M13.72,4.36h.2s.05.11.15.21h0a.53.53,0,0,0,.2,0,.21.21,0,0,1,.16,0,3.34,3.34,0,0,0,1,.2,1.39,1.39,0,0,0,.33,0,1.28,1.28,0,0,1,.28-.05.74.74,0,0,1,.23.05.68.68,0,0,0,.22,0l.16,0a.17.17,0,0,1,.1,0,.46.46,0,0,0,.07.18.46.46,0,0,1,.08.23,4.93,4.93,0,0,1-.15.5.21.21,0,0,1-.18-.1l-.18-.25a1.1,1.1,0,0,0-.15-.2v.15l.86,1.47c-.06.23.05.45.36.66v.45a.51.51,0,0,0,.18.26.92.92,0,0,1,.17.15.61.61,0,0,1,.15.3,1.51,1.51,0,0,0,.11.31,1.48,1.48,0,0,0,.35.25l.15.25a.44.44,0,0,0,.36.21v.3s.09.06.18.18.14.17.17.17a.17.17,0,0,0,.15,0l.16-.1h.3a4.36,4.36,0,0,0,.51-.15,1.48,1.48,0,0,1,.45-.1.12.12,0,0,1,.05.1,2.7,2.7,0,0,1-.6,1.47,5.27,5.27,0,0,1-.66.91l-.36.23a2.71,2.71,0,0,1-.35.2,1.45,1.45,0,0,0-.31.23,2.27,2.27,0,0,0-.25.31,1,1,0,0,0-.15.35.4.4,0,0,1-.15.25.45.45,0,0,0-.16.31,1.28,1.28,0,0,0,0,.28,1.05,1.05,0,0,1,.06.33.61.61,0,0,0,.15.35.64.64,0,0,1,.15.31l0,.1v.76a.3.3,0,0,1,0,.2c0,.24-.19.45-.58.63s-.6.37-.64.54a.22.22,0,0,0-.25.25.45.45,0,0,0,.1.25.54.54,0,0,1,.1.31.83.83,0,0,1,0,.5s-.12.06-.25.06a1.07,1.07,0,0,0-.46.4.19.19,0,0,1,.15.2c0,.14-.11.32-.35.56a3,3,0,0,0-.18.25l-.18.31a3,3,0,0,1-.65.66.36.36,0,0,1-.21.05c-.1,0-.17,0-.2.1a.31.31,0,0,0-.13.05.28.28,0,0,1-.12.05l-.11-.05-.1-.05a1.15,1.15,0,0,0-.48.13,1.17,1.17,0,0,1-.43.12.33.33,0,0,1-.3-.15h-.1a.54.54,0,0,0-.16-.4s.09-.09.16-.26-.11-.25-.31-.45a3.65,3.65,0,0,1-.71-1.83v-.2l-.2-.31A2.25,2.25,0,0,1,11.23,17a1.06,1.06,0,0,1,.26-.64,1,1,0,0,0,.25-.58,2.71,2.71,0,0,0-.1-.51c-.07-.27-.14-.5-.2-.71,0,0-.06-.12-.08-.25s0-.22-.08-.25L11,13.77a2.21,2.21,0,0,1-.32-.38.61.61,0,0,1-.11-.36.53.53,0,0,1,.21-.35v-.1a1.15,1.15,0,0,1,.05-.46.48.48,0,0,0-.51-.36H9.91c-.06,0-.16-.08-.27-.25a.49.49,0,0,0-.38-.25,8.29,8.29,0,0,0-1.07.3.36.36,0,0,0-.15.08.31.31,0,0,1-.15.07,1,1,0,0,1-.26-.05,1.53,1.53,0,0,0-.3-.05,1.29,1.29,0,0,0-.38.08,1.38,1.38,0,0,1-.43.07.53.53,0,0,1-.26,0A2.82,2.82,0,0,1,5.35,11a1.17,1.17,0,0,0-.45-.6l-.51-.51-.1-.1a.48.48,0,0,0,0-.18.69.69,0,0,1,0-.13.43.43,0,0,0-.15-.25,1.55,1.55,0,0,0,.4-.81,1.57,1.57,0,0,0-.1-.51,1.48,1.48,0,0,1-.1-.45.48.48,0,0,1,.1-.26L4.54,7A4.32,4.32,0,0,1,5.1,5.88a2.29,2.29,0,0,1,.51-.2A1.47,1.47,0,0,0,6,5.28a1.25,1.25,0,0,0,0-.36.68.68,0,0,1,.1-.35,1.77,1.77,0,0,1,.36-.38,2.68,2.68,0,0,0,.4-.43l0-.06a.22.22,0,0,1,0-.1A.09.09,0,0,1,7,3.55a1.15,1.15,0,0,0,.76.21l.3-.16a4.15,4.15,0,0,1,1.37-.4.6.6,0,0,1,.2,0l.1,0,.15,0a.5.5,0,0,1,.21-.1.17.17,0,0,1,.15.05.16.16,0,0,0,.1,0,.31.31,0,0,0,.15-.08.35.35,0,0,1,.21-.07.18.18,0,0,1,.15.07.14.14,0,0,0,.1.08c.07,0,.1,0,.1,0h.05c0,.07,0,.1-.1.1s0,.05,0,.05,0,0,0,0a.21.21,0,0,0,0,.15l.05.05a.47.47,0,0,1-.05.16A.46.46,0,0,0,11,4a.59.59,0,0,0,.4.4h.26a1.18,1.18,0,0,1,.66.33A1.18,1.18,0,0,0,13,5c.13,0,.2,0,.2-.1v-.2c0-.1.15-.22.46-.36Z"/></svg>