<svg id="b528badf-be2b-439a-8053-94c4f1f5b97c" data-name="Livello 1" xmlns="http://www.w3.org/2000/svg" viewBox="0 0 25 25"><path d="M14.06,4.47l0-.07a.08.08,0,0,0-.08,0s0,0,0,0L14,4.5A0,0,0,0,0,14.06,4.47Z"/><path d="M13.9,1.93c0,.06,0,.09.1.09s0,.06.13.1h.08a.13.13,0,0,1,.08,0l.06,0h.07a.05.05,0,0,0,.06-.06.72.72,0,0,0-.29-.17h-.1l-.13,0S13.9,1.88,13.9,1.93Z"/><path d="M13.48,3.65l.09.07C13.55,3.65,13.52,3.63,13.48,3.65Z"/><path d="M12.3,1.54c0-.09-.06-.13-.19-.13s-.07,0-.08,0,0,.05,0,.05a.06.06,0,0,0-.07.07l.3.1C12.27,1.67,12.3,1.62,12.3,1.54Z"/><path d="M12,1c-.09,0-.13,0-.13.06s.11.16.33.16a.12.12,0,0,0,.09,0,1.43,1.43,0,0,1,.17.23s0,0,0,.06.05.06.13.12a.55.55,0,0,0,.17.08.19.19,0,0,0,.13-.07h.06c0,.05.08.07.23.07h.33l.13-.07c0,.05,0,.07.06.07.26,0,.39-.06.39-.16H14l0,0v0h0c0-.09-.16-.13-.36-.13a1.14,1.14,0,0,0-.26,0,1.1,1.1,0,0,1-.29.05,1,1,0,0,1-.29,0l-.07,0h0a.22.22,0,0,1-.19-.09h.16s0,0-.1,0-.12-.05-.09-.09h-.1s0,0-.07,0a.42.42,0,0,1-.18-.08A.35.35,0,0,0,12,1Z"/><path d="M11.69,2.9l0,.07h-.1a2.08,2.08,0,0,0,.4.13S12,3.08,12,3a.88.88,0,0,0-.26-.22S11.71,2.84,11.69,2.9Z"/><path d="M11.85,2.15V2.09s0,0-.1,0h0L11.78,2c.05,0,.07-.07.07-.09a.11.11,0,0,0,0-.07h-.2c-.13,0-.22,0-.26.07a0,0,0,0,0,0,0s0,.06.13.06v.13h-.07l-.1,0-.09,0v.06a.51.51,0,0,0,.21.13l.18.1.1.1a.09.09,0,0,0,.06,0l0,0a.15.15,0,0,1,.1,0,.25.25,0,0,0,.1-.19A.2.2,0,0,0,11.85,2.15Z"/><path d="M12.6,2l.09-.07V1.83l-.26,0-.19,0a.12.12,0,0,0-.1.07v.06H12V2s0,0,0,.05a.35.35,0,0,0,0,.13v.13h.06c.09-.09.13-.14.13-.17h-.06s0,0,.13,0A.23.23,0,0,0,12.6,2Z"/><path d="M14.19,2.19l-.06,0,0,0H14l-.1,0v-.1c0-.15,0-.23-.16-.23-.31,0-.46.08-.46.23a.49.49,0,0,1,0,.1c0,.06-.06.1-.1.1s0,0,0-.07v-.1a0,0,0,0,1,0,0s0-.08.08-.13a.44.44,0,0,0,.12-.1l-.17-.06a.76.76,0,0,0-.35.16v.07a.07.07,0,0,1,0,.06.3.3,0,0,0-.06.2.22.22,0,0,0,.06.13h.12l.11,0v.07h-.19s0,0,.05.06a.08.08,0,0,1,0,.07h.2l.16.09H14c0,.07,0,.1,0,.1s.08,0,.13-.08.07-.08.09-.08a2.21,2.21,0,0,1,.33.23.33.33,0,0,0-.13.06l0,.07a.09.09,0,0,0,.07,0,.12.12,0,0,1,.09,0c.05,0,.12,0,.22.13s.14.15.14.2,0,.1-.13.19l-.06,0,0,0s0,.05.07.09a.43.43,0,0,1-.2.07h-.19c-.11,0-.16,0-.16.13s.06.1.19.1l0,0h.1s0,0,0,0,0,0,0,0,.09,0,.09-.1l.33.23s0,.1.16.16a.19.19,0,0,1,.13,0,.69.69,0,0,0,.17,0l.16.05a.09.09,0,0,1,0,.07s0,0,0,0,0,0,0,0,0-.1-.15-.16l-.18-.13h.07a1,1,0,0,0,.39.16A.23.23,0,0,0,16,4.11.11.11,0,0,0,16,4l0,0v-.1h-.07l-.13-.06a.16.16,0,0,1-.1-.17h-.06V3.62h.06v0h-.09l.06,0a0,0,0,0,1,0,0c.07,0,.14,0,.23.15s.16.14.23.14,0,0,0-.09a.13.13,0,0,0,.13-.1V3.55c.09,0,.13,0,.13-.06s0-.1-.13-.1-.06,0-.06,0H16c-.06,0-.09-.06-.09-.16-.16-.05-.23-.1-.23-.17a.19.19,0,0,1-.13,0s0,0,.16-.1l-.06,0h-.13s.06-.06.13-.06,0-.13-.1-.13h-.1V2.61a.61.61,0,0,1-.29-.13s-.06-.07-.16-.07h-.1c-.05,0-.09,0-.15-.09a1,1,0,0,0-.11-.13.58.58,0,0,0-.33-.07A.17.17,0,0,0,14.19,2.19Z"/><path d="M14.61,3.26c0-.06,0-.1-.13-.11s-.13,0-.13.11a.15.15,0,0,0,0,.1h.06C14.56,3.36,14.61,3.33,14.61,3.26Z"/><path d="M12.24,1s0,0,.06-.06v0h0c-.17,0-.27,0-.29,0Z"/><path d="M14.81,3.23l-.07-.07s-.06,0-.06.07,0,0,.06,0S14.81,3.25,14.81,3.23Z"/><path d="M17.09,6.61s0,0-.07,0l0,0h0v0a.09.09,0,0,1,0-.06l.07-.09a.13.13,0,0,0,0-.08l0,0s-.07,0-.13.13a1.91,1.91,0,0,1-.26.36s0,0,0,0h0s0,.06-.1.1l0,0,.08,0h.14A.09.09,0,0,0,17,7L17,7h.1l0,0,0,.06h0c.05,0,.09,0,.13-.13V7s0,.06,0,.06h0l0,0c.07,0,.1,0,.1-.09V7a.09.09,0,0,1,0-.06L17.4,7s0,0,0,0a.09.09,0,0,0,0-.06s0,0,0,0,0,0,0,0h0V6.68c-.07,0-.11,0-.13,0h-.13Z"/><path d="M13.93,6.13s0-.07-.16-.07v0a.33.33,0,0,0,.13,0Z"/><path d="M14.09,3c.07,0,.1,0,.1-.13C14.1,3,14.07,3,14.09,3Z"/><path d="M13.64,4.27l-.1.07V4.4a2.36,2.36,0,0,0,.23-.13Z"/><path d="M14,4.08,13.9,4l-.1,0s0,0,0,0v0a.26.26,0,0,0-.15-.1.38.38,0,0,1-.14-.06s0,0,0,0a.09.09,0,0,0,0-.06l-.06-.07c-.09,0-.14.11-.14.26V4a.05.05,0,0,1-.06.06l0,0a0,0,0,0,0,0,.06s.09,0,.16,0,0,.07,0,.07v0h0a.13.13,0,0,0,.14,0A.16.16,0,0,0,13.57,4a.77.77,0,0,1,.17.13h.13l.06,0A.09.09,0,0,1,14,4.08Z"/><path d="M14.81,11.24v0h.06a.34.34,0,0,1,.2,0l0,0a.19.19,0,0,0,.1,0l0,0h.07l0,0h.1a.64.64,0,0,0-.26-.13H15A.11.11,0,0,1,15,11h0a0,0,0,0,0,0,0s0,.06,0,.06a.11.11,0,0,0,0,.07h-.23s0,0,0,.06Z"/><path d="M14.45,11.17l-.06,0a.11.11,0,0,0-.07,0,0,0,0,0,0,0,0,.05.05,0,0,0,.06.06h.13s0-.06,0-.06Z"/><path d="M16.24,6.74c.05,0,.07,0,.07,0a.43.43,0,0,0-.33-.1A.7.7,0,0,0,16.24,6.74Z"/><path d="M14.74,10.91l0,0-.06,0h-.07v0a.4.4,0,0,1-.29-.09l-.07-.07A.76.76,0,0,1,14,10.6a.74.74,0,0,0-.23,0,.35.35,0,0,0-.36.2h0a.56.56,0,0,1,.26-.13h.06a0,0,0,0,0,0,.06h.13a.12.12,0,0,1,.08,0l.08,0h.07l0,0h0s.06.05.17.1a.11.11,0,0,1-.07,0v0l.15,0,.11,0C14.67,11,14.72,11,14.74,10.91Z"/><path d="M13.67,10.75s0,0,0,0h0l0,0Z"/><path d="M14.22,10l-.06,0h.13S14.27,10,14.22,10Z"/><path d="M15.43,11.07l0,0,0,.1h.06Z"/><path d="M14.29,10.36v0s0,0,0,0a0,0,0,0,0,0,0h0C14.22,10.32,14.25,10.36,14.29,10.36Z"/><polygon points="15.3 7.88 15.27 7.92 15.3 7.92 15.3 7.88"/><path d="M11,1.24l0-.06v.1a.1.1,0,0,0,.09.06v0h.1s0,.07.07.07l.14,0,.15,0h.06l-.06,0,0,0a0,0,0,0,0,0,.06c-.05,0-.07,0-.07,0s.06,0,.16,0a.43.43,0,0,0,.17,0,.76.76,0,0,1,0-.15.89.89,0,0,0,0-.11c0-.09,0-.13-.06-.13h0s0,0-.06,0l-.12,0h-.18a.19.19,0,0,0,.17.06v.1l-.1,0a.17.17,0,0,0-.13-.07v.07l.06.06s-.09,0-.16-.08A.23.23,0,0,0,11,1.15h0A.12.12,0,0,0,11,1.24Z"/><path d="M10.84,1.57h.1s.06,0,.06-.07,0,0,0,0,0,0,0,0A.32.32,0,0,0,10.84,1.57Z"/><path d="M10.87,1A.07.07,0,0,0,10.94,1a.19.19,0,0,1-.1,0,.24.24,0,0,0-.13-.05C10.71,1,10.76,1,10.87,1Z"/><path d="M11.2.79s0,0,0,.06a.29.29,0,0,0,.17,0Z"/><path d="M11.82.79s.09,0,.29,0V.69A.07.07,0,0,0,12,.62c-.06,0-.08,0-.08,0l-.07,0L11.82.49c-.07.05-.1.08-.1.1s0,.08.13.16Z"/><path d="M9.31,2.48c-.09,0-.13,0-.13.1s.12.06.36.06h.22s.06,0,.1.07H9.73a.4.4,0,0,0-.42.1c0,.08.06.13.19.13a.6.6,0,0,1,.23,0s0,0,0,.06.05,0,.07,0h.39a.39.39,0,0,1,.18,0l.15,0s0,0,0-.06,0,0,.06,0a.43.43,0,0,1,.2.07L11,3c.15,0,.24,0,.26-.06a.11.11,0,0,1,0-.07s-.07,0-.07,0,0,0,0,0a.3.3,0,0,0,.19-.07l-.14-.08A1.51,1.51,0,0,1,11,2.58c-.06-.05-.09-.08-.09-.1a.62.62,0,0,0,0-.18.58.58,0,0,1-.05-.21l0,0a.33.33,0,0,0,0-.1c0-.07,0-.1-.13-.1s-.13,0-.13.07V2h-.13q-.09,0-.09,0a1.75,1.75,0,0,0,.13.33h0a0,0,0,0,1,0,0s-.06,0-.06-.16a.41.41,0,0,0-.17-.13h-.09a.09.09,0,0,0,0,.06v0h-.13a.24.24,0,0,0-.23-.13s0,0-.07.06l-.06,0c0-.1,0-.16-.07-.16a.81.81,0,0,0-.34.13c-.14.09-.21.18-.21.26a.17.17,0,0,0,.13.1Z"/><path d="M9.37,1.6h.1a.13.13,0,0,0,.08,0h.12s0-.07,0-.07a.09.09,0,0,0,0,.07l0,0c-.06,0-.09,0-.09.07l.09.06a.73.73,0,0,0,.3-.06l.29-.07h.29a.74.74,0,0,0,.17-.23c0-.06-.05-.09-.13-.09h-.07l0,0a.14.14,0,0,1-.16-.16v0a.09.09,0,0,1-.07,0h0l-.07,0c-.06,0-.09.08-.09.1s0,.07.13.07v.06h-.07s0,0,.1,0,0,.07-.1.07A.45.45,0,0,1,10,1.32a.45.45,0,0,0-.19-.08H9.7s0-.06-.07-.06H9.47s0,.06.13.06H9.5a.1.1,0,0,0-.09,0,.52.52,0,0,0,.22.06l-.19,0H9.37v.06a.07.07,0,0,0-.06,0,.09.09,0,0,1-.07,0V1.5a.06.06,0,0,0,.07.07Z"/><path d="M21.18,14.63h-.09q-.09,0-.12,0a.71.71,0,0,1-.32-.27.44.44,0,0,0-.27-.09l-.21,0a.24.24,0,0,1-.14-.06.22.22,0,0,0-.13-.06s-.06,0-.12.09h-.06q.06-.09,0-.15a0,0,0,0,0,0,0l-.06,0a1.38,1.38,0,0,0-.39-.18q-.12,0-.24.24a.05.05,0,0,1-.06.06s0,0,0-.06h-.15a.18.18,0,0,0-.09-.15q-.09,0-.09-.06a.24.24,0,0,1,0-.15.68.68,0,0,1,.12-.12l.11-.09,0,0-.06-.06a.93.93,0,0,1-.12-.33s-.07,0-.14-.1-.12-.11-.16-.11h-.13a.23.23,0,0,1-.11-.05H18q-.42-.09-.45-.18l-.09,0a1.37,1.37,0,0,0-.21-.24H17q0-.18-.06-.18a.48.48,0,0,1-.27-.15v0h.09a.33.33,0,0,0-.15,0l-.06,0q-.09,0-.09.06t-.18.09-.12-.06h-.32A.17.17,0,0,1,15.8,12c-.14,0-.22-.09-.24-.14h-.09a.07.07,0,0,0,0,.07s.05,0,.05,0h-.12q-.15.06-.15.12a.49.49,0,0,0,0,.12v.06l-.06.09q-.09,0-.09-.18a.17.17,0,0,0,0-.12.17.17,0,0,1,0-.12.05.05,0,0,0,.06-.06c0-.05,0-.08-.06-.08s-.05,0-.08.06-.05,0-.07,0l-.21.06-.18.06a.64.64,0,0,0-.15.12q0,.12-.06.15t-.09.12h0v0c-.1-.09-.17-.14-.23-.14a.23.23,0,0,0-.15.05l-.11.05a.13.13,0,0,1-.1,0l0-.06c-.11,0-.17-.11-.17-.2v-.26a.45.45,0,0,0,0-.19v-.07a.14.14,0,0,1-.1-.05.27.27,0,0,0-.13,0l-.18,0-.21,0h-.07v-.07c.05,0,.07-.07.07-.1v-.19h0v0a.23.23,0,0,0,.06-.16.79.79,0,0,1,0-.12.36.36,0,0,0,0-.11v0H13c-.2,0-.3.06-.3.19a.16.16,0,0,1,0,.08.19.19,0,0,0,0,.09s0,.06-.07.06H12.5l0,0-.1,0-.13,0s-.07,0-.07,0h0a.26.26,0,0,1-.11-.1L12,11l0-.07s0-.06-.06-.06v-.1a.11.11,0,0,0,0-.07v-.29a.28.28,0,0,0,0-.16v-.17c0-.13,0-.22.16-.29h.1c.11-.11.19-.16.26-.16h0l.07,0,.06,0,.07,0,.13.07a.15.15,0,0,0,.13,0V9.54h.08a.16.16,0,0,0,.11,0,0,0,0,0,0,0,0,.17.17,0,0,1,.1,0l.12.05.11,0s.07,0,.07,0h0a.14.14,0,0,1,.13.06.56.56,0,0,1,0,.18.24.24,0,0,0,.05.15.61.61,0,0,1,.09.16v.06s.05,0,.07,0,.1-.06.1-.17a.34.34,0,0,0,0-.19.32.32,0,0,0-.06-.16.4.4,0,0,1-.07-.2c0-.15.16-.32.46-.52l0,0h.07c0-.05.07-.07.09-.07s0,0,0,0h0l-.07,0v0s.07,0,.07-.06l-.07,0s.07,0,.07-.07v0h0V8.37s0,0,0-.06a.23.23,0,0,0,0,.09v.17l.1-.2,0,0v0l0,0s0,0,0,0a1.08,1.08,0,0,0,.1-.2l0,0,0,0h0c.09,0,.14,0,.16,0h-.13A.49.49,0,0,1,15,8a.35.35,0,0,0,.16,0h.1l-.07-.07V7.79s.07-.13.2-.26h.13s.08,0,.13-.1v-.1h.22l0,0s0,0,.06,0,0,.07.07.07c-.18,0-.26,0-.26.16s0,.13.09.13L16,7.56a.38.38,0,0,1,.13-.1c.22-.09.32-.14.32-.16l-.13,0a.37.37,0,0,1-.22-.08c-.09,0-.13-.1-.13-.14l0,0a.23.23,0,0,0,0-.09h-.13l.1,0c.06,0,.1,0,.1-.09s-.08-.07-.23-.07a.49.49,0,0,0-.23.08.38.38,0,0,1-.19.08.25.25,0,0,1,.13-.11l.13-.08a.18.18,0,0,0,.06-.1,0,0,0,0,1,0,0,2.69,2.69,0,0,1,.46,0c.26,0,.41,0,.46-.1l.22-.08c.13-.06.2-.11.2-.15A.3.3,0,0,0,17,6a0,0,0,0,1,0,0V5.87L16.54,6h0s.08,0,.18-.09a.51.51,0,0,0,.18-.08s0-.06,0-.06h0c-.22,0-.33-.07-.33-.2a.32.32,0,0,1-.23-.1c.05,0,.07,0,.07-.06a.33.33,0,0,0,0-.1v0l0-.07-.09-.13s0,0-.08-.09S16,4.9,16,4.86,16,4.81,16,4.79s-.08,0-.1.13a.38.38,0,0,1-.26.23.15.15,0,0,1-.08-.05.15.15,0,0,0-.08,0c-.07,0-.1-.11-.1-.32l-.13-.07c-.09,0-.13-.06-.13-.13a.28.28,0,0,1-.15-.08c-.05,0-.09-.08-.11-.08l-.07,0-.06,0a.4.4,0,0,1-.15,0,.45.45,0,0,0-.18,0,.12.12,0,0,0-.13.13l.07.06a.09.09,0,0,1-.07.13s0,.06,0,.1a.22.22,0,0,1,0,.1.15.15,0,0,1-.16.16l.08.13.08.11a1.34,1.34,0,0,1,.06.12.25.25,0,0,1,0,.16q0,.19-.36.33a.22.22,0,0,1,.13.19,1.57,1.57,0,0,1,0,.2.28.28,0,0,0-.1.09c0,.11,0,.12-.13,0s-.26-.22-.26-.33,0-.3-.09-.32h-.26a1.51,1.51,0,0,0-.56-.3l-.06,0-.13,0a.13.13,0,0,0-.08,0,.19.19,0,0,1-.09,0c0-.24,0-.36-.16-.36s-.06,0-.06,0h0v-.2a.34.34,0,0,1,.17-.39l.06-.1a.42.42,0,0,0,.07-.13c.13,0,.19,0,.19-.06s-.07-.07-.23-.13a1.09,1.09,0,0,1,.26,0c.05,0,.08,0,.1,0V4h.1s.12,0,.23-.16V3.81a1.05,1.05,0,0,1-.36-.13h.06a.88.88,0,0,0,.23.1c.13,0,.2,0,.2-.13s0-.1,0-.1a.21.21,0,0,1,.12,0l.08,0,.07,0h.06s0,0,0,0,0,0,.07,0,0,0,.06,0l.13-.11s.07-.08.07-.1l0,0s-.06-.05-.06-.07,0-.14.06-.16V3a.27.27,0,0,1-.13-.05.25.25,0,0,0-.16,0l-.1,0c-.08,0-.13,0-.13.1s0,0,0,0l0,.06s0,.05-.07.07l0,0,0,.1-.07.13s-.06,0-.13,0-.1-.08-.1-.1,0,0,0-.07a.09.09,0,0,0,0-.06A.37.37,0,0,0,12.86,3s-.07,0-.08.08,0,.08-.09.08A.19.19,0,0,0,12.6,3c0-.05,0-.07,0-.07h-.11a.23.23,0,0,1-.12-.05.12.12,0,0,0,.13-.13l-.06-.07c-.05,0-.07,0-.07-.06s-.1-.23-.29-.23c0,0,0,0,0,.1H12s-.06,0-.06.06v.07l0,0a.13.13,0,0,1,0,.07l0,0s.06.07.17.1.16.06.16.13a.19.19,0,0,0,0,.13.07.07,0,0,1,.06,0c0,.05,0,.08-.1.12a.18.18,0,0,0-.13.18A.19.19,0,0,1,12,3.16a.53.53,0,0,0-.2,0c-.06,0-.09,0-.09.13h-.4c-.34,0-.53-.09-.55-.26l-.36.13s0,0,.07,0a.6.6,0,0,0,.23-.06s0,0-.13.1-.07,0-.07.06l0,.13a.22.22,0,0,1-.13-.06c0-.05,0-.07-.06-.07l-.07,0H9.86a.27.27,0,0,1-.13,0c-.11,0-.16,0-.16-.06s.14,0,.16,0A.34.34,0,0,0,9.37,3a.82.82,0,0,1-.32-.09.76.76,0,0,0-.36-.1l-.1,0-.09,0c-.07,0-.1,0-.1-.13a.1.1,0,0,0-.07,0,.11.11,0,0,1-.1.05s-.08,0-.13-.1L8,2.68a.1.1,0,0,0-.07.06.11.11,0,0,1-.1.07s-.06,0-.06-.07a2.3,2.3,0,0,0-.33.1l-.06,0-.13,0s-.08,0-.1,0l0,0C7,3,7,3,7,3a.75.75,0,0,1-.49-.13l-.07,0H6.38a.66.66,0,0,0-.26-.1L6,2.79l-.09,0a1.11,1.11,0,0,1-.52-.13H5.08A.19.19,0,0,1,5,2.61H4.69s0,0,0,0a.09.09,0,0,1-.06,0s0,.06-.1.06,0,0,0,0,0,0,0,0,0,0-.06,0a.09.09,0,0,0-.07,0s0,0-.09.07-.08.06-.1.06H4A1.13,1.13,0,0,0,3.52,3H3.25l-.06.13.23.1,0,.07.1.09c.15.09.24.17.26.23H3.68c-.11,0-.16,0-.16-.1H3.45a1,1,0,0,1-.21.1l-.18.1s0,.06.13.06v0L3.25,4h.31l.09,0a.2.2,0,0,0,.11,0,.2.2,0,0,1,.08,0h.07V4H3.84l0,0,0,.07s-.05,0-.15.1l-.18.06a.53.53,0,0,0-.2.08c-.08.06-.13.12-.13.18s0,0,.07.08a.29.29,0,0,1,.1.12H3.35l.3.19c0-.06.07-.1.09-.1s0,0,0,.1V5c0,.08,0,.13,0,.13h0l0,0h.07V5a1.22,1.22,0,0,0,.19.13v0l0,0,.06,0H4.3L4.46,5h.06a.19.19,0,0,0-.09.13.28.28,0,0,1-.1.13A1.27,1.27,0,0,0,4,5.54a.16.16,0,0,1-.11,0,.17.17,0,0,0-.12,0s0,0-.06.09-.05.08-.07.08a.25.25,0,0,0-.23.1.29.29,0,0,0,.25-.07.6.6,0,0,1,.21-.1,3,3,0,0,0,.36-.13.25.25,0,0,1,.13-.11l.13-.08a.32.32,0,0,1,.13-.13c.13,0,.19-.06.19-.17V5a.4.4,0,0,1,.15-.25.43.43,0,0,1,.25-.14h.06v0c-.13,0-.2.11-.2.2v.06A0,0,0,0,0,5,5S5,5,5,5a1,1,0,0,0,.46-.23l-.06-.07a.12.12,0,0,1,.09,0,.13.13,0,0,0,.1,0A1.45,1.45,0,0,0,6,4.86h.26a.44.44,0,0,0,.18.06.41.41,0,0,1,.21.1l.07.1a.32.32,0,0,0,.16.06l0-.06,0,0a.16.16,0,0,0,.13.07l.06,0s0,0,0,0a.13.13,0,0,0,0,.07.05.05,0,0,0,.06.06l0,0a.12.12,0,0,1,.09,0v.06s0,0-.06.07l0,0s0,.07.09.07.13,0,.13.06v.07c0,.08.07.13.2.13h0l0,0v0c0,.13,0,.2,0,.2a.12.12,0,0,1,.09,0v.07s0,0,0,.06L8,6.26c0,.15.11.22.19.22s0,0,.08.07a.18.18,0,0,1,.12.1l.06,0a.31.31,0,0,1,.13.06h0a.09.09,0,0,0,0,.07.09.09,0,0,1,0,.06s0,.06-.06.1a.22.22,0,0,0-.13-.06c-.05,0-.07,0-.07,0a.17.17,0,0,0,.07.13.26.26,0,0,1,0,.1s0,.09,0,.23a.5.5,0,0,0,0,.26.41.41,0,0,1,0,.19v.2l0,.06c.11.22.2.34.26.36a.22.22,0,0,0,0,.13l.06.13.07.13a.15.15,0,0,0,0,.1c.26.11.41.2.45.29l.1.23,0,.06a.46.46,0,0,0,.07.13,1.11,1.11,0,0,1,.19.23s0,0,0,0l0,0,.1,0a.19.19,0,0,1,.09,0,.31.31,0,0,1,.07.09.27.27,0,0,0,.07.08v.09l0,0s0,0,.08.06.06.07.08.07.08.1.1.1a.13.13,0,0,0,0-.07l-.1-.07a.38.38,0,0,1-.13-.26.22.22,0,0,0-.06-.13.31.31,0,0,1-.1-.13.21.21,0,0,0-.1-.19l-.13-.13a.34.34,0,0,1-.1-.23V9.32a1,1,0,0,0,.23.09s0,0,0,.07a.18.18,0,0,0,0,.1v.06a.44.44,0,0,0,.06.1l.13.13h.07a.19.19,0,0,0,.06.13l.1.06a.33.33,0,0,1,0,.1v0a.46.46,0,0,0,.17.1,1.36,1.36,0,0,1,.29.43v0a.09.09,0,0,1,0,.06.26.26,0,0,1,0,.1c0,.07,0,.1.06.1a.21.21,0,0,1,.2.16l.06,0a.2.2,0,0,1,.13,0,.38.38,0,0,1,.13.09h.13s.07,0,.14.07a.28.28,0,0,0,.13.06h.09a.12.12,0,0,0,.1,0s0,0,.07-.05a.11.11,0,0,1,.09,0l0,0s.06,0,.06,0h0a.37.37,0,0,1,.13.12.58.58,0,0,0,.13.11l.13,0h.1a.36.36,0,0,0,.2.1s.06,0,.06,0h0a2,2,0,0,0,.2.23.09.09,0,0,1,0,.06.31.31,0,0,0,0,.08.26.26,0,0,0,.05.09h0s0,0,0,0l.07.07.1.06c0,.05,0,.07.06.07a0,0,0,0,0,0,0c.07,0,.11,0,.13,0l.13.13s.07,0,.07-.06v0h0a.76.76,0,0,1,.16-.13l.1.1v0l0,0h0l-.08.08a.15.15,0,0,0,0,.11.14.14,0,0,1,.05.1V13l0,.06v.06l0,0a.05.05,0,0,0,.06.06.29.29,0,0,1-.14.15c-.07,0-.1.07-.1.09q-.18.27-.27.27a.27.27,0,0,1,0,.24.26.26,0,0,0-.07.12q0,.21.09.21h.09s0,.07-.08.1l-.1.08a.46.46,0,0,0-.06.18.7.7,0,0,0,.15.3.12.12,0,0,1,.09,0,.46.46,0,0,1,.06.18.12.12,0,0,1,.09,0,.54.54,0,0,0,0,.15,1.78,1.78,0,0,0,.08.18l.1.18.11.18a1,1,0,0,1,.09.21.31.31,0,0,0,0,.18.53.53,0,0,0,.36.24.7.7,0,0,1,.18.12.89.89,0,0,0,.21.08.59.59,0,0,1,.27.27c0,.06,0,.15,0,.26s0,.18,0,.22a.9.9,0,0,1,0,.15.82.82,0,0,0,0,.18v.27a.51.51,0,0,1,0,.09.34.34,0,0,0,0,.09v.06a1,1,0,0,1-.06.27,1,1,0,0,0-.06.3.49.49,0,0,1,0,.12.19.19,0,0,0,0,.15v.45a.93.93,0,0,0-.06.21l0,.15h0a.17.17,0,0,0-.06.12.12.12,0,0,1,0,.09.61.61,0,0,0-.12.33q0,.21,0,.21a.09.09,0,0,0,0,.06s0,0-.06,0a1,1,0,0,0-.06.27q0,.21.09.21l0,0a.09.09,0,0,1,.06,0h0v.09l-.18.83a.1.1,0,0,1-.09,0s0-.05-.06-.05a.05.05,0,0,0-.06.06v.06a1,1,0,0,1,.09.21.24.24,0,0,1-.06.11.22.22,0,0,0-.06.13,1.88,1.88,0,0,0,0,.2,1.49,1.49,0,0,1,0,.22v.09s0,.08.09.11a.14.14,0,0,1,.09.13l0,.06a0,0,0,0,0,0,0h.06s0,.05-.06.09l-.06,0,.06.06a.41.41,0,0,0,.27.15l.09.09h.09s.07.08.21.12,0,0,.07.09.07.09.11.09h.18l.05,0H16l.12,0a.34.34,0,0,1,.15,0q.09,0,.09,0a2.25,2.25,0,0,1-.42-.24.66.66,0,0,1-.07-.21c0-.12-.06-.19-.1-.21s-.09,0-.09-.12a.37.37,0,0,1,.09-.27.19.19,0,0,1,.1,0,.19.19,0,0,0,.1-.05V22.8a.17.17,0,0,1,.06-.12l.08-.06.09-.07a.2.2,0,0,0,0-.14c0-.06,0-.1-.12-.13a.17.17,0,0,1-.12-.17.21.21,0,0,1,.15-.21q.18,0,.18-.09a.53.53,0,0,1,.12-.35s-.06,0-.06-.09l.08,0,.07,0s.06-.07.06-.09a.05.05,0,0,0-.06-.06.05.05,0,0,1-.06.06q-.15,0-.15-.24a.05.05,0,0,1,.06-.06l.14,0,.13,0q.15,0,.15-.06V21a.42.42,0,0,0,0-.18.24.24,0,0,1,0-.15s0,0,.06,0l.12,0h.15a.56.56,0,0,1,.18,0,.3.3,0,0,0,.18-.07.85.85,0,0,0,.15-.18.33.33,0,0,0,0-.15.1.1,0,0,0-.06-.09s-.06,0-.06-.06a.24.24,0,0,0-.06-.18q-.12,0-.12-.09s0,0,.06,0a.27.27,0,0,1,.12,0,.27.27,0,0,0,.12,0l.27.09a.28.28,0,0,0,.2-.08.83.83,0,0,0,.15-.22,1.32,1.32,0,0,0,.07-.18l.16-.15a.94.94,0,0,0,.17-.18l.09-.18a.63.63,0,0,1,.21-.3v-.27a.6.6,0,0,1,.06-.27q.18-.09.18-.12a.29.29,0,0,1,.19-.12.41.41,0,0,0,.2-.09l.06-.06a.55.55,0,0,1,.3,0,.38.38,0,0,0,.24-.15s0,0,0-.06v-.09l.21-.3a.34.34,0,0,1,0-.09.5.5,0,0,0,0-.12.31.31,0,0,1,.06-.12v0a0,0,0,0,0,0,0,.49.49,0,0,1,0-.12.57.57,0,0,0,0-.18V16l.17-.18a.47.47,0,0,0,.09-.12,1.1,1.1,0,0,1,.15-.2,1.19,1.19,0,0,0,.18-.25.75.75,0,0,0,.06-.33Q21.33,14.63,21.18,14.63Zm-7.09-7,.39-.09c0,.08-.1.13-.39.13h0v0a0,0,0,0,1,0,0A.07.07,0,0,1,14.09,7.62Zm-.42.3s-.06,0-.06-.1l.06.06s.07,0,.07-.06a.44.44,0,0,1,.19,0h0l.07,0A2.75,2.75,0,0,1,13.67,7.92Zm-.85-1s0,0,.07,0H13l0-.06a0,0,0,0,1,0,0l.1.09V6.81h0a.8.8,0,0,1,.23.16V7a.09.09,0,0,0,0,.06.34.34,0,0,0,.2.1.44.44,0,0,1,.16.06h.1c.08,0,.13.09.13.14s0,.06,0,.06a.09.09,0,0,1-.06,0l-.07,0c0,.17,0,.26-.13.26l-.06-.13a.11.11,0,0,1-.07,0,.31.31,0,0,1,0-.08.45.45,0,0,0,0-.08c0-.09-.07-.14-.2-.14l0,0-.13.1s0,.06,0,.19v.13c0,.13,0,.2-.09.2a.09.09,0,0,1-.1-.1.6.6,0,0,1,.13-.42h-.07l-.06,0s0-.06.11-.12a.42.42,0,0,1,.18-.08h.2V7.17l-.13,0-.13,0c-.05,0-.07,0-.07,0h0c-.07,0-.1,0-.1-.07H13v0A.09.09,0,0,0,13,7s0,0-.1.07l-.1,0,0,0a.11.11,0,0,1-.1,0s0,0-.06-.07,0,0,0,0h-.1A.79.79,0,0,1,12.82,6.91Z"/></svg>