<svg id="b99eb1fd-e7b0-41a5-ad3b-66f5eb752580" data-name="Livello 1" xmlns="http://www.w3.org/2000/svg" viewBox="0 0 25 25"><path d="M23.94,7.72a1.4,1.4,0,0,1,.54.35.42.42,0,0,0-.3.15l-.05.1c-.06.1-.11.15-.14.15a.75.75,0,0,1-.35-.2.77.77,0,0,0-.45-.2,0,0,0,0,0-.05,0v.1s-.05.07-.17.12-.17.11-.17.17,0,.08.1.13.1.09.1.12-.09.1-.35.1a1,1,0,0,0-.55.3,1,1,0,0,1-.59.3l-.17-.05-.23-.08a.33.33,0,0,0-.24.1,1.26,1.26,0,0,0-.3.42v.2a.45.45,0,0,1-.07.15.28.28,0,0,0-.08.15s0,.07-.1.12a.24.24,0,0,0-.1.17,2.33,2.33,0,0,0-.39.45c-.14-.1-.2-.4-.2-.89a.39.39,0,0,1,.3-.4,1.57,1.57,0,0,0,.34-.39.25.25,0,0,1,.18-.13.3.3,0,0,0,.17-.07.63.63,0,0,0,.2-.2c.06-.1,0-.15-.1-.15-.27.33-.43.45-.5.35a.1.1,0,0,1,.05-.15.48.48,0,0,0-.29,0,.49.49,0,0,0-.55.49h-.3A.41.41,0,0,1,19,9.5a.64.64,0,0,0-.22,0,6.58,6.58,0,0,0-.94.09,1.94,1.94,0,0,0-.6.45l-.12.15a1.06,1.06,0,0,1-.15.15c-.05,0-.07.06-.07.1a.22.22,0,0,0,.14.24.38.38,0,0,0,.3-.1.46.46,0,0,1,.3.35.33.33,0,0,1-.1.25v.22a.25.25,0,0,1-.05.17.49.49,0,0,1-.2.35,2.25,2.25,0,0,0-.2.27,3.17,3.17,0,0,1-.29.4c-.1.12-.18.17-.25.17a.49.49,0,0,0-.2-.05.39.39,0,0,1-.2-.05,3.69,3.69,0,0,0-.19.35l-.15.1c-.07.07-.12.1-.15.1s0,.08.1.15a.53.53,0,0,1,.15.39c0,.13,0,.2-.1.2s0,.05-.15.05a.16.16,0,0,1-.1,0h0v-.1a.16.16,0,0,1,0-.1v-.1l0-.05s0,0,0-.1,0-.06-.1-.09h-.1a0,0,0,0,1-.05-.05s0-.05,0-.05,0,0,0,0v-.15a.37.37,0,0,0-.15-.05.49.49,0,0,0-.19.07.7.7,0,0,1-.2.08l.05-.1a.16.16,0,0,0,.05-.1c-.07-.07-.12-.08-.15-.05a.14.14,0,0,0-.1.05l-.2.2-.07,0a.1.1,0,0,1-.08,0c-.06,0-.1,0-.1,0l.15.1a.2.2,0,0,1,.05.14h.15v0c0-.06.07-.09.1-.09h0l.05.09h.15a.54.54,0,0,1-.2.2l-.15.05,0,0a.16.16,0,0,0-.05.1s.05.07.15.1v.1a.14.14,0,0,1,.05.1.71.71,0,0,1,.15.44.35.35,0,0,1,0,.18.19.19,0,0,0-.05.12c-.07,0-.15.1-.25.3s-.07.24-.2.24,0,.1-.05.1a.84.84,0,0,1-.44.2h-.1l-.05.05-.12.08-.13,0a.29.29,0,0,0-.2.1l-.05.1V16H13a.17.17,0,0,1-.12,0l-.2.17c-.1.09-.15.16-.15.23a.19.19,0,0,0,.05.1l.3.29a.68.68,0,0,1,.19.5.3.3,0,0,1,0,.12.3.3,0,0,0,0,.12.43.43,0,0,0-.3.15.16.16,0,0,0-.15.1v0s0,.08-.1.15v-.2a0,0,0,0,0,0,0c-.13,0-.2,0-.2-.1l-.1-.09a.19.19,0,0,0-.19-.1v-.1a.2.2,0,0,0-.15-.05s0,0,0,.05v.1a.39.39,0,0,1-.05.14.5.5,0,0,0-.05.15.37.37,0,0,0,.05.15.09.09,0,0,1,.1.1c0,.1,0,.15.05.15l.17.12a1.15,1.15,0,0,1,.2.15.23.23,0,0,1,.07.17v.1s0,.09.1.15a.23.23,0,0,1,.05.15h-.15a0,0,0,0,1-.05-.05.45.45,0,0,1-.34-.35,1.61,1.61,0,0,0,0-.44l-.15-.25h-.05v-.39a.81.81,0,0,0-.08-.28,1.18,1.18,0,0,1-.07-.22v-.25h-.05s-.05,0-.05-.05l-.25.25c-.06,0-.1-.05-.1-.15v-.2l-.14-.29s-.1,0-.2-.15a.3.3,0,0,1-.05-.2c0-.06,0-.1-.15-.1s-.1.15-.3.15h-.05l0,0s0,0-.09,0a.12.12,0,0,0-.05.1v.07a.15.15,0,0,1,0,.08,2.61,2.61,0,0,1-.35.2l-.25.29c-.06.07-.11.1-.15.1s-.19.12-.19.15A.18.18,0,0,0,9,17a.28.28,0,0,1,0,.15.64.64,0,0,1,0,.15.44.44,0,0,0,0,.15v.09h0a.14.14,0,0,0-.05.1l-.05.1c-.07,0-.1,0-.1.05a.16.16,0,0,0,0,.1s-.05,0-.05,0,0,0-.05,0a0,0,0,0,1,0-.05.69.69,0,0,1-.1-.3.14.14,0,0,0-.05-.09l-.1-.1s-.05,0-.05-.1v-.1a.5.5,0,0,1,0-.15A2,2,0,0,0,8,16.63a.39.39,0,0,0,0-.14.32.32,0,0,1,0-.15v-.2a.49.49,0,0,0-.05-.2l.05,0H7.85l-.2.2a.19.19,0,0,1-.17-.1c-.05-.07-.1-.1-.13-.1H7.5s0,0,0-.1h-.1q-.24,0-.3-.15c-.06-.13-.11-.19-.15-.19H6.86s-.05,0-.05,0,0,0,0,0l-.15-.05-.05.05h-.2l-.2-.05a.64.64,0,0,0-.24,0H5.77l0-.1c0-.1-.07-.15-.1-.15s-.1,0-.1.1H5.27a1.15,1.15,0,0,1-.2-.15.27.27,0,0,0-.19,0V15q-.15-.3-.3-.3c-.07,0-.1.07-.1.2V15a.49.49,0,0,0,.3.35v.1s0,0,0,0,0,0,0,0v.05a.19.19,0,0,1,0,.1v0c0,.07.06.1.19.1s.32-.11.55-.34v.2a.36.36,0,0,0,.35.19l0,.05,0,.1h0s.05,0,.05.05A.31.31,0,0,1,6,16a.31.31,0,0,0-.07.15c-.1,0-.15,0-.15,0l-.1.15,0,.05c0,.06-.07.09-.1.09l-.15.15-.4.2v.05a1.42,1.42,0,0,1-.39.1l-.1,0a.63.63,0,0,1-.12.1.27.27,0,0,1-.13.05h-.2l-.19.1-.15,0v-.1a.33.33,0,0,1-.1-.25v-.15s0-.1-.1-.2a1,1,0,0,1-.2-.34c-.13,0-.2-.15-.2-.35a.14.14,0,0,0-.05-.1.14.14,0,0,1,0-.1l0,0H2.9V15.5a.14.14,0,0,1,0-.1s0-.05-.05-.05l-.15-.25-.1-.1v-.2l-.1-.3,0,0a.21.21,0,0,0,0-.13.17.17,0,0,1,.05-.12.27.27,0,0,1,0-.13A.28.28,0,0,0,2.7,14v-.2s0,0,0,0v-.05h0l-.05.05a.12.12,0,0,1-.1-.05.78.78,0,0,1-.25.1.19.19,0,0,1-.12,0,.27.27,0,0,0-.13-.05.14.14,0,0,0-.09.05.14.14,0,0,1-.1,0l-.1,0-.1-.05h0c-.1-.06-.13-.11-.1-.15a.2.2,0,0,0-.2-.09c.07-.07.1-.12.1-.15v0l0-.05s0-.06.1-.08l.2-.05.15,0-.05,0H2l.2-.1a.78.78,0,0,1,.3,0,.28.28,0,0,1,.15,0l.1,0c0,.07.08.1.25.1h.29a.43.43,0,0,0,.15-.05.49.49,0,0,1,.2-.05h-.1c0-.13-.11-.25-.32-.35s-.34-.19-.37-.29c.19,0,.24-.1.15-.2s0,0,0,0,0,0,0-.05l-.49.25s0,.05.1.05H2.8a.54.54,0,0,1-.4.15l-.15-.2A.4.4,0,0,0,2,12a.39.39,0,0,0-.14.05l-.05.1a.26.26,0,0,0-.15.05v-.3s-.07,0-.1-.12-.07-.13-.1-.13a.69.69,0,0,0-.2,0l-.15,0c-.16,0-.24,0-.24-.1a.7.7,0,0,1,.1-.29l.09-.1A.29.29,0,0,0,1,11.09L1,11s0-.06.07-.07.07-.05.07-.08c0-.2-.05-.3-.14-.3H.52s0-.08.1-.14a.34.34,0,0,0,.1-.2c0-.23.06-.35.2-.35A.14.14,0,0,1,1,9.9l.05.1c.2,0,.19-.12-.05-.35l.3-.15.13,0a.3.3,0,0,0,.12,0l.3-.14-.15-.15.15-.18a1.13,1.13,0,0,1,.19-.19c.07-.05.1-.09.1-.13s0-.13-.15-.2,0,0,0-.09A.19.19,0,0,0,2,8.34a.19.19,0,0,1-.07-.12V8.17s.05,0,.05-.1a.5.5,0,0,0-.05-.15l0,0a.19.19,0,0,1,0-.12A.27.27,0,0,0,2,7.62s0-.06-.1-.1-.1-.06-.1-.09L2,7.18h.15a3.84,3.84,0,0,1,.94.34.14.14,0,0,1,.1.05c.27.1.38.22.35.35s-.21.22-.45.15A2,2,0,0,0,2.55,8a.35.35,0,0,1,.07.2.41.41,0,0,0,.1.22.24.24,0,0,0,.18.07V8.32a.67.67,0,0,0,.39,0,.32.32,0,0,0,.15-.2L3.54,8l.15,0,.17,0c.05,0,.08,0,.08,0a.29.29,0,0,1,0-.15c.1-.23.16-.34.19-.34s.12.14,0,.34,0,.1.1.1a1.17,1.17,0,0,0,.32-.15L5,7.5a.23.23,0,0,1,.27,0,.44.44,0,0,0,.27,0l.25-.07A.41.41,0,0,1,6,7.43a.11.11,0,0,1,.09.05c.14.09.2,0,.2-.15s.12-.14.45-.1A1.34,1.34,0,0,0,7,7.38a.68.68,0,0,0,.2.1c.2.09.23.06.1-.1a1,1,0,0,1-.2-.5.59.59,0,0,1,.6-.49l.15.05c.1,0,.11,0,.05.09a.32.32,0,0,0-.05.15c0,.63.08.94.24.94s.07-.06,0-.19a.69.69,0,0,0,0-.18c0-.08,0-.12,0-.12s.07-.15,0-.25A.5.5,0,0,1,8,6.68a.41.41,0,0,0,.24-.29l0,.1c0,.23.13.24.3,0h.49L9,6.34c0-.17.26-.25.79-.25l.15-.15.05-.1a2.51,2.51,0,0,1,1.23-.44c0,.06,0,.1,0,.1a.58.58,0,0,0,.6-.2,2.6,2.6,0,0,1,.49-.3.39.39,0,0,1,.4.3h.49a.17.17,0,0,1,.15,0c.46.13.4.34-.2.64a2.23,2.23,0,0,0-.34.2c0,.1.16,0,.49-.2a.94.94,0,0,0,.3.12l.52.13.32,0H15a.18.18,0,0,1,.2-.2l.35,0c.3.06.38.16.25.3v0c0,.26.1.39.29.39s.15-.08.15-.25c0,0,.08,0,.15.08a.31.31,0,0,0,.15.07h.79a.45.45,0,0,1,.45-.39,4.39,4.39,0,0,1,1,.14.54.54,0,0,1,.15.15c0,.07.06.1.09.1h.6c.33,0,.51.12.54.35h1.14s.08,0,.15.1.1.06.1.1.16,0,.1-.2c0,0,.08-.07.25-.1a3.41,3.41,0,0,1,1.48.49A3.92,3.92,0,0,1,23.94,7.72ZM5.27,13.56a.14.14,0,0,1,0-.09v-.1c0-.14,0-.2-.15-.2s0-.15.1-.15h.1l0,0v-.15s0,0-.1,0l0,.05a2.27,2.27,0,0,0-.19-.44l-.15-.15a1.86,1.86,0,0,1,.34-.1h.3a.55.55,0,0,0-.44-.3.75.75,0,0,0-.35.1l-.2.05a1,1,0,0,0-.1.25.5.5,0,0,0,0,.15l0,0a.74.74,0,0,0,.35.55s-.08.08-.15.25h-.1l0,0s0,0,0,.05v.14h0c.06,0,.1,0,.1,0v.05h0s.11.05.24.05a.47.47,0,0,0,.25-.05Zm1.09.3v-.1q0,.11,0,.15v-.05s0,0,0,0,0,0,0,0S6.36,13.89,6.36,13.86ZM12.5,19.6V20s0,.05-.1.05-.08-.05-.15-.15a.53.53,0,0,1-.25-.2,1,1,0,0,1-.19-.29.56.56,0,0,1-.1-.15v-.05h-.1l0-.15a.48.48,0,0,0-.1-.15c-.07,0-.1,0-.1-.05l0-.15h-.15l-.1-.19v0h0l.05,0h.2c.1,0,.15,0,.15.14h.05a1.3,1.3,0,0,1,.2.15A.29.29,0,0,0,12,19a.55.55,0,0,1,.2.15s.05,0,.05.05v.05s0,.05.1.05.05.1.15.2Zm.79-3.26a.27.27,0,0,1-.2.19c-.09,0-.14,0-.14-.09v-.05l.14-.05.15-.1Z"/></svg>