<svg id="af4f531c-e20e-46b0-8da8-0ea69d169c4c" data-name="Livello 1" xmlns="http://www.w3.org/2000/svg" viewBox="0 0 25 25"><path d="M23.75,20.05l-.3.46-.46-.1-.2.76-.51-.46L22,19.9l.35-.4-.4-.11-.25-.5L21,18.48l-.66.1-.31.51-.66.41H19l-.15.35.71.81-.41.2-.25.21-.66.1L18,20.26l-.21.25-.5-.1-.26-.61-.66-.1-.35-.2h-.66l-.05.35-.15-.2-.81-.36L14,19l.2-.3-.05-.31-.4-.35-.61-.36-.51-.2-.1-.41-.4-.3.1.46-.31.35-.35-.41-.46-.15-.2-.3V16.3l.2-.51-.4-.2.3-.25c-.27-.27-.68-.64-1.22-1.12l-.35-.5-.61-.46-.71-.71.15-.25.26.2.1-.1-.31-.46-.4-.15-.21.36H6.87L6.37,12l-.66-.3-.81-.1-.41-.31L3.68,11H2.77l-.71-.36L1.25,10l.05-.46.2-.35L1.3,8.9,2,7.63H3.93l0-.5L3.73,7l-.15-.36L3,6.32l-.56-.51h.66V5H5.91V4.69l.15-.05.26.15.5-1h.31v.26h.3v.45l-.25.66.15.25L7.18,6l.05.15-.15.76-.31.41-.25,0-.31.51.51.3.1-.25a2.11,2.11,0,0,1,.41.2l.2.1.41-.3h.4l.15.1L8.6,8l.71.15L10,8.09l.5-.2.15-.16.51.11.36.1.35-.05.31-.16.7.21.26,0,.4.3.46.36.51.25.4.41-.1.15-.1.35.15.56-.35.51-.16.61-.05.66.11.4v.71l-.26.15-.1.66.1.46-.35.35.1.41.2.25.41.81a9.87,9.87,0,0,0,.88.89,6.36,6.36,0,0,1,.89.94v.3l.66.05.15-.1.41.36.71-.11.61-.4L19.7,18l.56-.45.81.1-.05.15.81.05.71.26.45.45.56.46-.15.2Z"/></svg>