<svg id="aa5d1f95-b996-45d3-81b2-88d128745ca2" data-name="Livello 1" xmlns="http://www.w3.org/2000/svg" viewBox="0 0 25 25"><path d="M3.43,13.44a.92.92,0,0,0,.45-.15.29.29,0,0,1-.1-.21c0-.06.07-.14.2-.23a.72.72,0,0,1,.31-.12h.25c.37,0,.56.23.56.71,0,0,0,.07-.15.1s-.16.07-.16.1v1s-.16.06-.4.06a.46.46,0,0,0-.23.07A.7.7,0,0,0,4,15c0,.07-.09.1-.13.1a.69.69,0,0,1-.3.1.36.36,0,0,1-.41-.4.58.58,0,0,1,.23-.41.56.56,0,0,0,.23-.41c-.2-.06-.31-.16-.31-.3S3.32,13.44,3.43,13.44ZM20.71,19l-.05.16s-.05,0-.05,0v.45c-.3.31-.46.53-.46.66a.58.58,0,0,0,.11.31,1.07,1.07,0,0,0,.22.25l.18.15s-.1.05-.2.05-.06.05-.18.05h-.23s-.1.05-.2.16a.43.43,0,0,1-.25.15.64.64,0,0,1-.31-.15.57.57,0,0,0-.35-.16.66.66,0,0,0-.31.1.57.57,0,0,1-.2.11v.35a.44.44,0,0,1-.28-.1.33.33,0,0,0-.18-.1.13.13,0,0,0-.15.15l.31.35v.16l-.05.05a.94.94,0,0,0,.55.45.25.25,0,0,0,.05.16c-.16,0-.25,0-.25.05h-.05a.6.6,0,0,1-.41-.21v.11a.18.18,0,0,1,.06.15.18.18,0,0,0,0,.15.16.16,0,0,1,0,.1c0,.14,0,.22,0,.25h-.26a.51.51,0,0,1-.45-.55l.2-.21h-.3s-.06-.06-.06-.2a2.18,2.18,0,0,0-.35-.51c-.3-.3-.46-.52-.46-.65v-.46c0-.27-.18-.49-.55-.66s-.51-.25-.51-.36h-.2a.67.67,0,0,1-.51-.32,1,1,0,0,1-.25-.59h-.51c-.07,0-.11-.07-.13-.2a.43.43,0,0,0-.07-.25,1.82,1.82,0,0,1-.26.15c-.17,0-.25.08-.25.15l.05.1a.49.49,0,0,1,0,.15,1.37,1.37,0,0,0,0,.16c0,.16.12.3.35.4a.62.62,0,0,1,.41.46,1,1,0,0,0,.3.56h.61v.15a.16.16,0,0,0,.08.15l.18.1.15.05.35.15a.67.67,0,0,1,.2.18.45.45,0,0,1,.11.28.45.45,0,0,1-.21-.1.51.51,0,0,0-.3-.1c-.24,0-.36.08-.36.25s.06.1.16.2a.42.42,0,0,1,.15.26l-.2.05a.64.64,0,0,0-.13.28c0,.15-.13.22-.23.22s-.15,0-.15-.1c.17,0,.25-.15.25-.45l-.15-.46a1,1,0,0,1-.46-.46q-.3,0-.3-.15a1.55,1.55,0,0,1-.91-.5l-.13-.11-.15-.1a.14.14,0,0,1-.08-.1,1.72,1.72,0,0,1-.2-.3l-.18-.36a.6.6,0,0,0-.25-.25.75.75,0,0,0-.38-.1.39.39,0,0,0-.28.12c-.08.09-.14.13-.18.13a1.54,1.54,0,0,0-.35.23.93.93,0,0,1-.51.23,2,2,0,0,1-.46-.1,1.57,1.57,0,0,0-.45-.11c-.31,0-.46.14-.46.41l.1.35c-.06.28-.33.44-.81.51a1.6,1.6,0,0,0-.76,1.12c0,.06,0,.13.15.2a2.35,2.35,0,0,1-.6.66s-.11.07-.21.23-.22.21-.35.17a1.45,1.45,0,0,0-.51,0,1,1,0,0,0-.48.16,1,1,0,0,1-.43.15c-.07,0-.15-.1-.25-.31s-.22-.3-.36-.3a1.83,1.83,0,0,0-.4.05,1.73,1.73,0,0,1-.31,0,.16.16,0,0,1-.1,0s0-.05,0-.05v-.66a.31.31,0,0,1-.3-.2.26.26,0,0,1,.1-.2c.06-.07.1-.12.1-.16a3.53,3.53,0,0,1,.07-.6,4,4,0,0,0,.08-.66.87.87,0,0,0-.1-.33,1.15,1.15,0,0,1-.1-.28c0-.07.09-.15.28-.26a1.17,1.17,0,0,1,.33-.15.28.28,0,0,1,.12.05s.1,0,.13,0h.76a.33.33,0,0,0,.25.1h.76a.38.38,0,0,1,.26,0,.6.6,0,0,0,.2.05.65.65,0,0,0,.25-.05L7,19.72a.75.75,0,0,1,.1-.35.94.94,0,0,0,.1-.36v-.45a.34.34,0,0,0,0-.21.22.22,0,0,0,0-.1.49.49,0,0,1,0-.15c-.31,0-.46-.18-.46-.56a.12.12,0,0,1-.1-.05.16.16,0,0,0-.1,0c-.68,0-1-.12-1-.35V17c0-.1.21-.21.65-.31,0,.1.17.15.41.15a.68.68,0,0,0,.2,0l.15,0v-.15s0-.1,0-.3v-.15h.16a.73.73,0,0,0,.5.25,1,1,0,0,0,.26-.25c.33,0,.57-.26.71-.76h.2a3.09,3.09,0,0,0,.81-.36c.07,0,.1-.2.1-.51a.13.13,0,0,1,.15-.15,1,1,0,0,1,.76-.51h.26a.16.16,0,0,0,.1-.15h.4c.24,0,.36-.08.36-.25a1.59,1.59,0,0,0-.1-.41.92.92,0,0,0-.15-.45.83.83,0,0,1,0-.94,1.11,1.11,0,0,1,.48-.33,2.47,2.47,0,0,0,.41-.2v.15a1.47,1.47,0,0,0-.1.46q0,.15.3.15v.15s0,.07-.1.1l-.1,0a1,1,0,0,0-.36.61.26.26,0,0,0,.21.3v.16a.71.71,0,0,1,.2,0l.15,0c.07.13.12.2.15.2a1.18,1.18,0,0,0,.53-.18.74.74,0,0,1,.54-.12.5.5,0,0,1-.05.15.85.85,0,0,0,.25.25.4.4,0,0,0,.25-.15.9.9,0,0,1,.41-.13,1,1,0,0,0,.35-.07l.61-.31a1.94,1.94,0,0,1,.51.05.47.47,0,0,1-.05.16v0a5.6,5.6,0,0,0,.63,0,4,4,0,0,1,.53-.06H18c.34,0,.51.33.51,1a.4.4,0,0,1-.13.25.48.48,0,0,0-.12.31.87.87,0,0,0,.15.4.86.86,0,0,1,.15.41c0,.06-.06.13-.18.2s-.17.12-.17.15a2.17,2.17,0,0,0-.26,1c0,.24.24.36.71.36a1.72,1.72,0,0,0,.61-.13,1.91,1.91,0,0,1,.51-.12c.13,0,.26.14.38.43s.24.43.38.43v.66s0,.05,0,.05,0,0,0,0l.1.1.15-.05a.69.69,0,0,1,.26-.05v.25C20.83,18.74,20.71,18.81,20.71,19ZM7.89,14.3a.49.49,0,0,1,.2-.1c.24,0,.35.1.35.3a.61.61,0,0,1-.22.38l-.28.28.15,0,.15,0v.1a.49.49,0,0,1-.45.26H7.18l-.38.07a3,3,0,0,1-.43.08.47.47,0,0,1-.16-.05.26.26,0,0,0-.15-.05.22.22,0,0,0-.25.25H5.56q-.1,0-.21.15H5.2v-.1a5.85,5.85,0,0,1,.61-.61.3.3,0,0,1,.2-.05.37.37,0,0,0,.23,0,.16.16,0,0,0,.08-.15V15a.24.24,0,0,1-.26.15A.48.48,0,0,1,5.81,15a.57.57,0,0,0-.2-.07H5.45v0a.25.25,0,0,1-.15,0c0-.07.08-.15.23-.23s.23-.16.23-.23a.87.87,0,0,0,0-.28.49.49,0,0,1,0-.22.85.85,0,0,0,.71-.26v-.25c-.27,0-.41-.05-.41-.15a.22.22,0,0,1,.1-.21s.05,0,.05-.05H6a.49.49,0,0,0-.2.05.39.39,0,0,1-.2,0c-.17,0-.26,0-.26-.15s0-.08.1-.15.1-.12.1-.15v-.31a.78.78,0,0,1-.3-.1c-.07.07-.07.15,0,.26H5.1v-.26c0-.07,0-.1.05-.1v-.15c-.17,0-.25-.05-.25-.15l.1-.21v-.1c-.24-.06-.36-.18-.36-.35H4.9a.13.13,0,0,0,.15.15l0-.1,0-.05v0a.21.21,0,0,1,0-.15A.18.18,0,0,1,5.25,11v-.15l0-.1c0-.13.09-.2.26-.2h.5l.15.1a.15.15,0,0,1-.1.15l-.2.13a.21.21,0,0,0-.1.18.19.19,0,0,0,.05.1h.91a.59.59,0,0,1-.2.53.78.78,0,0,0-.25.43c-.07.07-.11.12-.11.15a.29.29,0,0,0,.26,0h.1a.64.64,0,0,1,.28.33A1,1,0,0,0,7,13a.92.92,0,0,0,.17.15l.23.18a.7.7,0,0,1,.18.2.46.46,0,0,1,.07.23.27.27,0,0,0,.11.2c.06.07.1.12.1.16a.09.09,0,0,1-.1.1v.15l.2-.1Zm4.81-4.16c-.1,0-.22-.17-.35-.4a2,2,0,0,1-1.52,1.06,2,2,0,0,1-.71-.45c0-.14.08-.21.25-.21V9.89a.55.55,0,0,0-.4.1,1.21,1.21,0,0,1,.25-.46A1.42,1.42,0,0,1,10,8.42a.29.29,0,0,1,.15-.25l.15-.11A1,1,0,0,1,11,7.51a1.47,1.47,0,0,0,.23-.18.9.9,0,0,1,.28-.2.64.64,0,0,1,.4,0,.47.47,0,0,0-.18-.1.68.68,0,0,0-.22,0,1.22,1.22,0,0,0,.55-.23,3.73,3.73,0,0,0,.54-.48L13,5.83a.24.24,0,0,0,.12-.2,2.29,2.29,0,0,1,.08-.28c0-.08.07-.12.1-.12l.15-.36a1.47,1.47,0,0,1,.76-.71,1.72,1.72,0,0,0,.87-1,4.08,4.08,0,0,0-.44.17,1.18,1.18,0,0,1-.53.13.72.72,0,0,1,.36-.2l-.13,0-.13,0c.07-.17.16-.26.26-.26s0,0,0,.06h.05a.69.69,0,0,1,.15-.21c.1,0,.12.12,0,.26a.53.53,0,0,1,.28.07.46.46,0,0,0,.23.08s.09-.06.18-.18a.6.6,0,0,0,.12-.23h-.25a.75.75,0,0,1,.35-.25.73.73,0,0,0,.36,0l-.15-.15c0-.07.27-.14.71-.21v.21s.11-.07.22-.21a.53.53,0,0,1,.38-.2v.25A.79.79,0,0,1,17.42,2a.61.61,0,0,1,.28-.11A.81.81,0,0,0,18,1.78c-.16-.07-.25-.14-.25-.2s0-.07.08-.11l.17-.1.11-.05a.32.32,0,0,0,.3.21,1.25,1.25,0,0,0,.33-.08,3,3,0,0,0,.35-.13c.09,0,.15,0,.18.05a.24.24,0,0,1-.07.18L19,1.7a.57.57,0,0,0-.12.18.46.46,0,0,0,.43-.2c.15-.17.24-.26.28-.26a.25.25,0,0,1,0,.16.2.2,0,0,0,.05.15,1.62,1.62,0,0,1,.61-.46q0,.36.15.36c.07-.17.15-.26.25-.26L21,1.5l.28.13a.41.41,0,0,1-.13.25.67.67,0,0,1-.23.08.82.82,0,0,0-.25.07c.17.1.25.19.25.26l.51,0c-.51.37-.76.64-.76.81s.09.24.28.33.28.17.28.28a.59.59,0,0,1-.15.38.53.53,0,0,0-.16.27.9.9,0,0,0,.16.41.86.86,0,0,1,.15.41.64.64,0,0,1-.08.25.6.6,0,0,0-.07.25.55.55,0,0,0,.25.41c.17.13.25.25.25.35s-.06.12-.2.26l.28.25a.58.58,0,0,1,.23.41c0,.2-.22.49-.66.86a5.83,5.83,0,0,0-.76.71c-.2.3-.61.4-1.22.3a3.23,3.23,0,0,1-1,.25c-.24,0-.36-.06-.36-.2a.61.61,0,0,1-.45-.15.78.78,0,0,1-.26-.41c0-.06.09-.18.26-.35-.2-.07-.31-.27-.31-.61V7.46a1.3,1.3,0,0,0,.89-.54l.53-.58c.41-.17.61-.32.61-.46,0-.33-.3-.5-.91-.5s-1,.2-1,.61v.4a.44.44,0,0,1-.18.31,3.24,3.24,0,0,1-.51.33,2.18,2.18,0,0,0-.38.22,3,3,0,0,0-.71.51.61.61,0,0,0-.1.36.24.24,0,0,1-.15.25v.35c.1,0,.15.14.15.31a.73.73,0,0,1,.48.2.58.58,0,0,1,.23.41c0,.1-.08.22-.23.38a.61.61,0,0,1-.38.22c-.3,0-.45.27-.45.82a.22.22,0,0,0,.25.25.76.76,0,0,1-.28.43c-.15.12-.23.23-.23.33h-.4c-.07,0-.18.08-.33.25a.65.65,0,0,1-.43.26c-.07,0-.15-.11-.23-.33a1.55,1.55,0,0,1-.13-.43v-.16a2.26,2.26,0,0,1-.35-.81l-.13-.2-.13-.2a.67.67,0,0,1,0-.26.25.25,0,0,1,0-.15ZM11.49,21.75a.5.5,0,0,0,0-.15.56.56,0,0,0-.08-.18.42.42,0,0,1-.08-.18.29.29,0,0,0,.21-.1c.07-.06.12-.1.15-.1a.21.21,0,0,1,.15.05l0,.05a.77.77,0,0,1,.1.66.52.52,0,0,1-.4.46c-.14,0-.2-.12-.2-.36A.32.32,0,0,1,11.49,21.75Zm.15-1.47a.19.19,0,0,0,.12-.07c.06-.06.1-.08.13-.08s0,0,0,.1v.05a.84.84,0,0,1,0,.23c0,.12-.06.21-.07.28a.64.64,0,0,0,0,.15s-.07,0-.1-.13a2.62,2.62,0,0,1-.1-.3.74.74,0,0,0-.1-.23Zm1.62,2.49v.15l.2,0a2.62,2.62,0,0,1,.36.23,1.87,1.87,0,0,0,.4.22l.1,0c.07,0,.11,0,.11-.1a.33.33,0,0,0,0-.15.18.18,0,0,1,0-.1V23l0,0,.1-.21a.42.42,0,0,0-.31,0,.59.59,0,0,1-.25.08l-.3-.05A.42.42,0,0,0,13.26,22.77Z"/></svg>