<?xml version="1.0" encoding="UTF-8"?>
<svg width="104px" height="21px" viewBox="0 0 104 21" version="1.1" xmlns="http://www.w3.org/2000/svg" xmlns:xlink="http://www.w3.org/1999/xlink">
    <title>UNBRANDED</title>
    <g id="Page-1" stroke="none" stroke-width="1" fill="none" fill-rule="evenodd">
        <g id="Group-2" transform="translate(0.344000, 0.032200)" fill="#000000" fill-rule="nonzero">
            <g id="UNBRANDED" transform="translate(0.000000, 0.000000)">
                <path d="M9.24,0 L9.24,15.456 C9.24,16.1093333 9.12333333,16.7113333 8.89,17.262 C8.65666667,17.8126667 8.32533333,18.3026667 7.896,18.732 C7.46666667,19.1613333 6.972,19.4973333 6.412,19.74 C5.852,19.9826667 5.25466667,20.104 4.62,20.104 C3.98533333,20.104 3.39266667,19.9826667 2.842,19.74 C2.29133333,19.4973333 1.80133333,19.1613333 1.372,18.732 C0.942666667,18.3026667 0.606666667,17.8126667 0.364,17.262 C0.121333333,16.7113333 0,16.1093333 0,15.456 L0,0 L2.856,0 L2.856,15.176 C2.856,15.8853333 3.024,16.408 3.36,16.744 C3.696,17.08 4.116,17.248 4.62,17.248 C5.124,17.248 5.544,17.08 5.88,16.744 C6.216,16.408 6.384,15.8853333 6.384,15.176 L6.384,0 L9.24,0 Z" id="Path"></path>
                <polygon id="Path" points="11.816 19.936 11.816 0 14.56 0 18.872 12.012 18.928 12.012 18.928 0 21.784 0 21.784 19.936 19.096 19.936 14.728 7.952 14.672 7.952 14.672 19.936"></polygon>
                <path d="M24.36,19.936 L24.36,0 L28.532,0 C29.4466667,0 30.226,0.14 30.87,0.42 C31.514,0.7 32.0413333,1.07333333 32.452,1.54 C32.8626667,2.00666667 33.1566667,2.54333333 33.334,3.15 C33.5113333,3.75666667 33.6,4.38666667 33.6,5.04 L33.6,5.768 C33.6,6.30933333 33.558,6.76666667 33.474,7.14 C33.39,7.51333333 33.264,7.84 33.096,8.12 C32.7786667,8.64266667 32.2933333,9.09066667 31.64,9.464 C32.312,9.78133333 32.8066667,10.248 33.124,10.864 C33.4413333,11.48 33.6,12.32 33.6,13.384 L33.6,14.504 C33.6,16.2586667 33.1753333,17.6026667 32.326,18.536 C31.4766667,19.4693333 30.1186667,19.936 28.252,19.936 L24.36,19.936 Z M27.216,10.696 L27.216,17.08 L28.448,17.08 C29.0266667,17.08 29.4793333,16.996 29.806,16.828 C30.1326667,16.66 30.38,16.4266667 30.548,16.128 C30.716,15.8293333 30.8186667,15.4746667 30.856,15.064 C30.8933333,14.6533333 30.912,14.2053333 30.912,13.72 C30.912,13.216 30.884,12.7773333 30.828,12.404 C30.772,12.0306667 30.66,11.7133333 30.492,11.452 C30.3053333,11.1906667 30.0533333,10.9993333 29.736,10.878 C29.4186667,10.7566667 28.9986667,10.696 28.476,10.696 L27.216,10.696 Z M27.216,2.688 L27.216,8.176 L28.504,8.176 C29.456,8.176 30.0953333,7.938 30.422,7.462 C30.7486667,6.986 30.912,6.29066667 30.912,5.376 C30.912,4.48 30.73,3.808 30.366,3.36 C30.002,2.912 29.344,2.688 28.392,2.688 L27.216,2.688 Z" id="Shape"></path>
                <path d="M39.144,2.688 L39.144,8.904 L40.768,8.904 C41.272,8.904 41.6733333,8.834 41.972,8.694 C42.2706667,8.554 42.504,8.35333333 42.672,8.092 C42.8213333,7.83066667 42.924,7.50866667 42.98,7.126 C43.036,6.74333333 43.064,6.3 43.064,5.796 C43.064,5.292 43.036,4.84866667 42.98,4.466 C42.924,4.08333333 42.812,3.752 42.644,3.472 C42.2893333,2.94933333 41.6173333,2.688 40.628,2.688 L39.144,2.688 Z M36.288,19.936 L36.288,0 L40.88,0 C44.24,0 45.92,1.95066667 45.92,5.852 C45.92,7.028 45.738,8.02666667 45.374,8.848 C45.01,9.66933333 44.3706667,10.332 43.456,10.836 L46.536,19.936 L43.512,19.936 L40.852,11.424 L39.144,11.424 L39.144,19.936 L36.288,19.936 Z" id="Shape"></path>
                <path d="M53.984,12.964 L52.584,5.74 L52.528,5.74 L51.128,12.964 L53.984,12.964 Z M46.928,19.936 L51.38,0 L53.76,0 L58.212,19.936 L55.356,19.936 L54.516,15.652 L50.624,15.652 L49.784,19.936 L46.928,19.936 Z" id="Shape"></path>
                <polygon id="Path" points="59.5 19.936 59.5 0 62.244 0 66.556 12.012 66.612 12.012 66.612 0 69.468 0 69.468 19.936 66.78 19.936 62.412 7.952 62.356 7.952 62.356 19.936"></polygon>
                <path d="M72.044,19.936 L72.044,0 L76.272,0 C77.9146667,0 79.1606667,0.448 80.01,1.344 C80.8593333,2.24 81.284,3.50933333 81.284,5.152 L81.284,14.476 C81.284,16.3426667 80.8313333,17.7193333 79.926,18.606 C79.0206667,19.4926667 77.7186667,19.936 76.02,19.936 L72.044,19.936 Z M74.9,2.688 L74.9,17.248 L76.216,17.248 C77.0186667,17.248 77.588,17.0473333 77.924,16.646 C78.26,16.2446667 78.428,15.6146667 78.428,14.756 L78.428,5.152 C78.428,4.368 78.2693333,3.76133333 77.952,3.332 C77.6346667,2.90266667 77.056,2.688 76.216,2.688 L74.9,2.688 Z" id="Shape"></path>
                <polygon id="Path" points="83.972 19.936 83.972 0 92.484 0 92.484 2.688 86.828 2.688 86.828 8.54 91.756 8.54 91.756 11.228 86.828 11.228 86.828 17.08 92.484 17.08 92.484 19.936"></polygon>
                <path d="M94.332,19.936 L94.332,0 L98.56,0 C100.202667,0 101.448667,0.448 102.298,1.344 C103.147333,2.24 103.572,3.50933333 103.572,5.152 L103.572,14.476 C103.572,16.3426667 103.119333,17.7193333 102.214,18.606 C101.308667,19.4926667 100.006667,19.936 98.308,19.936 L94.332,19.936 Z M97.188,2.688 L97.188,17.248 L98.504,17.248 C99.3066667,17.248 99.876,17.0473333 100.212,16.646 C100.548,16.2446667 100.716,15.6146667 100.716,14.756 L100.716,5.152 C100.716,4.368 100.557333,3.76133333 100.24,3.332 C99.9226667,2.90266667 99.344,2.688 98.504,2.688 L97.188,2.688 Z" id="Shape"></path>
            </g>
        </g>
    </g>
</svg>