<svg id="a991c255-5c87-49e1-90c5-270f889dfb23" data-name="Livello 1" xmlns="http://www.w3.org/2000/svg" viewBox="0 0 25 25"><path d="M23.12,11c0,.06-.1.14-.3.22a1.76,1.76,0,0,1-.36.13c-.07.1-.3.15-.71.15a4.25,4.25,0,0,0-.71.05,0,0,0,0,0-.05.05s0,.09-.1.16a.92.92,0,0,1-.2.12.48.48,0,0,0-.21.18.65.65,0,0,0,.31-.13.7.7,0,0,1,.35-.12c.24,0,.36,0,.36.1s-.05.12-.15.15l-.16.05h.21a.43.43,0,0,1,0,.15l-.05.05c0,.07.06.15.2.23a.63.63,0,0,0,.35.13l.21.05s-.17.12-.51.25a1,1,0,0,0-.2.15l-.11.11q-.15,0-.15-.21c0-.17.14-.25.41-.25-.07,0-.1,0-.1-.1a.14.14,0,0,0-.1.05l-.06.05h-.35V13c-.07.1-.14.15-.2.15h-.21c-.2.21-.3.34-.3.41v.1l.1.1,0-.05v.05h-.2s-.12.06-.25.08a.64.64,0,0,0-.26.07h.2s-.11.06-.25.06h-.05l-.05.05.05,0a1.2,1.2,0,0,1-.15.3s-.05,0-.05-.05l-.05.05v0l.05.05-.15.31v-.26a.29.29,0,0,1-.05-.15c-.07.07-.07.1,0,.1v.36h.05v.05c0,.07,0,.1-.11.1a.18.18,0,0,0,.11.05c0,.07,0,.1-.11.1v.05l.11,0h-.05s0,.05-.06.05-.08,0-.15.1h-.1l0,.06c-.47.3-.71.57-.71.81a.51.51,0,0,0,.1.3.48.48,0,0,1,.1.25.64.64,0,0,1,.05.31c0,.17-.05.25-.15.25a.16.16,0,0,1-.1,0v-.1a1.16,1.16,0,0,0-.15-.25.43.43,0,0,1-.08-.23.88.88,0,0,0-.07-.28.21.21,0,0,0-.21-.1h-.05s0,.05-.1.05a.56.56,0,0,1-.18-.08A.39.39,0,0,0,17,16.2a.21.21,0,0,0-.16.05,0,0,0,0,1-.05-.05.25.25,0,0,1-.17.05h-.13v.25a.23.23,0,0,1-.2,0l-.21-.1-.1,0-.1,0-.1,0h-.05a.69.69,0,0,0-.41.25h-.15c-.23.1-.32.26-.25.46v.25a.4.4,0,0,1-.05.25V18a.16.16,0,0,1,.05.1v.15s.07,0,.1.11l0,.1a1.16,1.16,0,0,1,.13.15.47.47,0,0,0,.17.15h.06s0,0,.1,0a.6.6,0,0,0,.2,0l.15-.05.05.05h.1s.07,0,.11-.1a.21.21,0,0,1,.05-.13.28.28,0,0,0,.05-.12c0-.21.15-.31.45-.31H17v.05a.62.62,0,0,1,0,.18.52.52,0,0,0-.06.18.33.33,0,0,1-.1.25v-.05h-.05V19s0,.08-.1.15v.1h.1l.33,0,.28,0a.31.31,0,0,1,.2.07.33.33,0,0,0,.16.08v.1a.8.8,0,0,1-.05.31v.4c0,.14.08.24.25.31l.05.1a.21.21,0,0,0,.15.05.48.48,0,0,0,.18-.08.43.43,0,0,1,.23-.07c.1,0,.23.08.4.25l-.2.15-.05-.05.05-.05v0l-.15-.15a1.13,1.13,0,0,0-.26.2h.05v.05c0,.07,0,.1-.1.1l-.2-.2s-.1,0-.2,0-.05,0-.05-.05a.09.09,0,0,1-.1-.1.49.49,0,0,0-.16-.1l-.1-.11a0,0,0,0,0-.05.05h-.05a.24.24,0,0,1-.07-.12.39.39,0,0,1,0-.13.16.16,0,0,0,0-.1,2.12,2.12,0,0,1-.31-.36h-.05s0,.06-.1.06a.67.67,0,0,1-.3-.16h-.15a.41.41,0,0,1-.21-.05.72.72,0,0,1-.2-.17.54.54,0,0,0-.2-.18h-.05s0,0-.1,0l0-.05a.19.19,0,0,0-.16.07c0,.05-.06.08-.1.08a.21.21,0,0,1-.15-.05h-.15a.58.58,0,0,1-.2-.1.5.5,0,0,0-.21-.1h-.2a1.27,1.27,0,0,0-.2-.16.54.54,0,0,0-.21-.05.14.14,0,0,0-.1,0,.32.32,0,0,0-.3-.25c-.07,0-.1-.05-.1-.15a.47.47,0,0,0,0-.16.19.19,0,0,0,0-.1v-.05a2.32,2.32,0,0,0-.46-.66,1,1,0,0,1-.25-.15v-.05a.5.5,0,0,0,0-.15l-.16-.1a.34.34,0,0,1-.1-.21h-.1l-.2-.2a.48.48,0,0,1-.1-.15v-.1a.2.2,0,0,1-.05-.15c0-.07,0-.11-.05-.11a1,1,0,0,1-.36-.15V16a.49.49,0,0,0,.15.36l.21.2a.35.35,0,0,1,.15.31.8.8,0,0,0,.15.2.28.28,0,0,1,.1.2.61.61,0,0,0,.2.41l.16.1a.16.16,0,0,1-.05.1s-.09-.05-.16-.15-.07,0-.12-.1-.1-.11-.13-.11l-.05-.05v-.15a.49.49,0,0,1-.1-.13l-.1-.12a.34.34,0,0,0-.16-.08.35.35,0,0,1-.15-.07l.05-.05c.07,0,.09,0,.05-.06a1.88,1.88,0,0,0-.3-.35.52.52,0,0,1-.1-.2l-.05-.1a2.33,2.33,0,0,1-.15-.36,1.55,1.55,0,0,0-.71-.46.17.17,0,0,1-.05-.15l-.11-.2-.1-.2a.54.54,0,0,1-.05-.21c-.1,0-.23-.22-.4-.55l.05-.1v-.31a.74.74,0,0,0-.05-.3.65.65,0,0,1,0-.41,3.42,3.42,0,0,0,.08-.35.47.47,0,0,0,0-.16.26.26,0,0,1-.1-.2s0,0,.1,0a.29.29,0,0,1,.2.1c.07-.07.1-.12.1-.15a.16.16,0,0,0,0-.1.16.16,0,0,1-.05-.1h0a.41.41,0,0,0-.2-.1l-.1,0a.4.4,0,0,0-.18-.16c-.09,0-.13-.06-.13-.1S9,11.36,9,11.13L8.77,11a.18.18,0,0,1,0-.11v-.1a.21.21,0,0,0-.15-.05s-.05-.1-.05-.3v-.05l0-.05H8.42q-.3,0-.3-.21v-.1c0-.07-.07-.1-.21-.1s-.15,0-.15-.1l0,0c.07,0,.1-.07.1-.1v-.1a.17.17,0,0,0-.15.05l0,.05a.09.09,0,0,1-.1-.1.18.18,0,0,1,0-.11s0-.05,0-.05a.12.12,0,0,1-.1,0,.29.29,0,0,1-.21-.1l0,0,0,.1A.48.48,0,0,1,7,9.35L6.9,9.2a.63.63,0,0,0-.33-.15A.88.88,0,0,1,6.29,9H5.88c-.4-.21-.6-.32-.6-.36a.21.21,0,0,1-.16.05.25.25,0,0,0-.15,0l.1.11a1.48,1.48,0,0,1-.71.35.05.05,0,0,1,0-.1V9c0-.14.11-.24.31-.31V8.59h-.1a.64.64,0,0,0-.38.23A.59.59,0,0,0,4,9.2v.1c0,.17-.1.26-.31.26a.62.62,0,0,0-.2.2,1.38,1.38,0,0,1-.2.13.39.39,0,0,0-.2.17l-.56.21a.73.73,0,0,0-.33.15.47.47,0,0,1-.38.1.39.39,0,0,1,.35-.15s.07,0,.1-.13.07-.13.11-.13a.25.25,0,0,1,.17,0c.09,0,.15,0,.18-.05a2.14,2.14,0,0,1,.56-.4A.34.34,0,0,0,3.4,9.4a.32.32,0,0,1,.15-.2h-.1a.78.78,0,0,1-.25.1l-.1,0-.1,0-.06.05v0a1,1,0,0,1-.3-.2V9.3h-.1l0,0H2.44s0-.06,0-.2v-.1c0-.1,0-.15-.05-.15s-.09,0-.16.15l-.45-.31h.1a.59.59,0,0,0-.15-.17c-.07-.05-.1-.1-.1-.13s.06-.19.2-.28A.75.75,0,0,1,2.08,8a.92.92,0,0,0,.28-.1c.15-.06.23-.11.23-.15l0-.1,0,0h.1v-.1h-.1a.2.2,0,0,0-.13,0,.35.35,0,0,1-.18,0l-.12,0-.13,0H1.58l-.11-.2v0c-.13,0-.2,0-.2-.11a1.87,1.87,0,0,1,.28-.15l.33-.15H2c0,.1.09.15.25.15h.21A.88.88,0,0,0,2,6.72l-.15-.16,0-.1-.36-.15.11-.2H2a1.64,1.64,0,0,1,.81-.66h.26s.08,0,.15-.1.12-.1.15-.1a.12.12,0,0,1,.1,0,.19.19,0,0,0,.1,0s0,.05,0,.05,0,0,0,0,.15,0,.15-.1a.18.18,0,0,0,.11.05s0,0,.05,0h.4a.29.29,0,0,0,.2.1h.51a1.57,1.57,0,0,0,.81.2.32.32,0,0,0,.13,0A.48.48,0,0,1,6,5.7a.8.8,0,0,1,.4.16h.1l.11,0a1.21,1.21,0,0,0,.76.2c0-.07.06-.12.2-.15l0,0q0-.11.15,0l.2,0,.11-.06.5-.15a.09.09,0,0,0,.1.1.17.17,0,0,0,.16-.1c0-.07.06-.1.1-.1l.15.15c.07.1.13.16.2.16a.16.16,0,0,0,.15-.08s.07-.08.11-.08.05.21.15.21l.15,0A.37.37,0,0,1,10,5.8,1.3,1.3,0,0,1,10.6,6a1.19,1.19,0,0,0,.51.15.49.49,0,0,1,.55.2s-.11.05-.25.05.08.1.25.1a.75.75,0,0,0,.21,0l.15,0h.45l.11,0s.06,0,.1.1a.29.29,0,0,0,.2.11l-.05-.21a.09.09,0,0,1,.1-.1c.14-.07.2-.12.2-.15a.75.75,0,0,1-.35.1c-.07,0-.1,0-.1,0l.56-.2c0,.27.32.4.86.4h.61c0-.13,0-.2.15-.2a.78.78,0,0,1,.3,0c0,.14,0,.22.1.25a.27.27,0,0,1,.21-.27q.19-.08.15-.18a.14.14,0,0,0-.1,0c0-.1,0-.17.05-.2s-.09-.17-.26-.21-.25-.08-.25-.15l0,0a.16.16,0,0,0,.05-.1l-.05,0V5.3s0-.07.1-.1h.1c0-.11,0-.16,0-.16.31,0,.46.12.46.36,0,0,0,.07.1.1l.1.1c0,.14-.06.2-.2.2a.3.3,0,0,0,.18.08l.18,0s-.06,0-.06.1a.28.28,0,0,1,.16.25c.06,0,.11,0,.12-.13s.06-.12.13-.12a.45.45,0,0,1,.25.2.12.12,0,0,1-.05.1.19.19,0,0,0-.05.1s.05.09.15.15.17.09.21.06l.1-.21.05-.15,0,0c.07,0,.1-.07.1-.1L17.29,6a0,0,0,0,1-.05,0c0-.1.07-.16.2-.16a.37.37,0,0,0,.15.06.42.42,0,0,1,.26.07.34.34,0,0,0,.2.08v.2c-.07,0-.1.12-.1.25s0,.07.1.1l.05.06s0,.08-.1.15L17.8,7c-.07,0-.1,0-.1,0s-.07-.09-.11-.08,0,.05,0,.08l-.1,0-.1,0a.28.28,0,0,1-.12,0,.37.37,0,0,0-.18,0s.05,0,.05.15-.1.2-.31.2a1.66,1.66,0,0,1-.35-.15h-.1a2.34,2.34,0,0,0,.56.21v.1c-.17.17-.29.25-.36.25h-.15v.1c0,.07-.09.09-.15,0a1.92,1.92,0,0,0-.41,0c.24.1.36.17.36.2s-.11.11-.31.11a.49.49,0,0,1-.1.2l-.1.15a.52.52,0,0,0-.25.61v.3h0s0,0,.1,0,.25.19.25.56a.31.31,0,0,0,.13,0,.28.28,0,0,1,.12-.05l.21.05.1,0a2.22,2.22,0,0,1,.86.46h.41c.1,0,.15.2.15.5s.13.34.4.51.21.12.21-.05a.28.28,0,0,1,.15-.15s0-.14-.05-.31-.1-.27-.21-.3c.38-.14.56-.31.56-.51a.49.49,0,0,0-.05-.25,1.45,1.45,0,0,0-.1-.18l-.13-.18a.82.82,0,0,1-.12-.2A.22.22,0,0,0,18.76,9a.37.37,0,0,0-.05-.15c-.07-.07-.08-.12-.05-.16a.14.14,0,0,0,.1-.2l-.1-.1a.18.18,0,0,1,.2-.2.75.75,0,0,1,.28.07.87.87,0,0,0,.23.08.16.16,0,0,0,.1,0,.12.12,0,0,1,.1-.05s.09,0,.18.12a.32.32,0,0,0,.23.13c0,.1.06.17.2.2l.2.1q0,.51.15.51s.08,0,.13.08a.19.19,0,0,0,.13.07.57.57,0,0,0,.4-.35c0-.14.09-.2.16-.2s0,.06.1.1a.29.29,0,0,0,.12.2c.09.07.13.12.13.15l.15.2,0,.11v.05a.29.29,0,0,1,.05.15c0,.07,0,.1-.1.1a.49.49,0,0,0,.36.15c0,.21.17.31.5.31h.06s0,0,0,.1a1.16,1.16,0,0,1-.28.12,1,1,0,0,0-.28.13h.05a5.41,5.41,0,0,0,.66-.2v.1s0,.05,0,.05A.49.49,0,0,1,23.12,11ZM14.25,5.7A.88.88,0,0,0,14,5.58a1.74,1.74,0,0,1-.33-.18q-.15-.11-.15-.15A.81.81,0,0,0,13.46,5a.85.85,0,0,1-.07-.33l0,0a.5.5,0,0,0,.05-.15c0-.11-.07-.16-.2-.16s-.21,0-.21.11v.1h-.2c-.1,0-.15,0-.15,0a3.69,3.69,0,0,0,.2.5h0s0,0-.05,0-.1-.08-.1-.25a.58.58,0,0,0-.26-.2h-.15a.16.16,0,0,0,0,.1v0h-.2a.37.37,0,0,0-.35-.2s-.07,0-.11.1l-.1,0c0-.17,0-.25-.1-.25a1.06,1.06,0,0,0-.53.2c-.22.13-.33.27-.33.4s.13.16.2.16H11c-.13,0-.2,0-.2.15s.19.1.56.1h.35s.09,0,.16.1h-.21a.64.64,0,0,0-.66.15c0,.14.11.21.31.21a.73.73,0,0,1,.35,0s.05,0,.05.1a.18.18,0,0,0,.11,0h.6a1.2,1.2,0,0,1,.28-.08l.23,0S13,6,13,6s0,0,.1,0a.76.76,0,0,1,.31.1,1.17,1.17,0,0,0,.25.1c.24,0,.37,0,.41-.1a.14.14,0,0,1-.05-.1c-.07,0-.11,0-.11,0s0-.06,0-.06A.52.52,0,0,0,14.25,5.7ZM12.17,4a3.58,3.58,0,0,0,.46-.1h.45a1.12,1.12,0,0,0,.26-.36q0-.15-.21-.15H13l0,0a.22.22,0,0,1-.25-.25v0a.14.14,0,0,1-.1-.05h-.05l-.11.05q-.15.1-.15.15c0,.07.07.1.21.1v.1h-.11c0,.07.09.07.16,0s-.05.1-.16.1a.7.7,0,0,1-.35-.12.65.65,0,0,0-.31-.13h-.15c0-.07,0-.1-.1-.1h-.25c0,.07.07.1.2.1h-.15a.21.21,0,0,0-.15.05.75.75,0,0,0,.35.1l-.3-.05h-.1v.1a.17.17,0,0,0,.15,0,.21.21,0,0,1,.15.05.32.32,0,0,1-.15-.05l-.15,0a.18.18,0,0,0-.11,0,.11.11,0,0,1-.1.05v.11a.09.09,0,0,0,.1.1l.11,0h.15l.12,0,.18,0c0-.07,0-.1,0-.1a.19.19,0,0,0,.05.1l.05,0c-.1,0-.15,0-.15.1l.15.1A1,1,0,0,0,12.17,4Zm1.22-1.19a.37.37,0,0,0-.21-.08.23.23,0,0,0,.26.26c.07,0,.1,0,.1-.11A.27.27,0,0,1,13.39,2.79Zm0,1h.15a.09.09,0,0,0,.1-.1s0,0,0,0,0,0,0-.06A.55.55,0,0,0,13.39,3.83Zm.15-.61v.15a.15.15,0,0,0,.15.1v0h.15a.09.09,0,0,0,.1.1.78.78,0,0,0,.23-.05l.23,0h.1l-.1,0-.05.05a.08.08,0,0,0,0,.11c-.07,0-.1,0-.1,0s.08.05.25.05a.67.67,0,0,0,.26-.05.93.93,0,0,1,0-.23.92.92,0,0,0,0-.18c0-.13,0-.2-.1-.2h-.06s0,.05-.1.05a.47.47,0,0,1-.17,0l-.13,0H14.1c0,.07.12.1.25.1v.15a.32.32,0,0,1-.15,0,.29.29,0,0,0-.2-.1v.1l.1.1c-.07,0-.16,0-.26-.12s-.18-.18-.25-.18h-.05a.21.21,0,0,0,.05.15Zm.61-.56a.54.54,0,0,0-.21-.05.16.16,0,0,0,0,.1C14,2.71,14.11,2.7,14.15,2.66Zm.66,2h-.05l.1-.1c.06-.07.1-.12.1-.15a.18.18,0,0,0-.05-.11H14.6a.56.56,0,0,0-.4.11s0,0,0,.05.07.1.2.1v.2h-.1l-.15,0a.47.47,0,0,0-.16-.05v.1a1,1,0,0,0,.33.2,1.17,1.17,0,0,1,.28.15l.16.16a.19.19,0,0,0,.1,0l0,0A.18.18,0,0,1,15,5.09q.11,0,.15-.3a.3.3,0,0,0-.2,0v-.1S14.91,4.6,14.81,4.64Zm.45,1.47a1.47,1.47,0,0,0-.4-.36c-.07,0-.12,0-.15.16l-.06.1H14.5a4.34,4.34,0,0,0,.61.2A.25.25,0,0,0,15.26,6.11Zm.1-3.5V2.46c0-.07,0-.1-.12-.1s-.13,0-.13,0L15,2.26l-.1-.11c-.1.07-.15.12-.15.16s.06.12.2.25l-.05,0Q14.91,2.72,15.36,2.61Zm3.05,1.07c-.07-.14-.26-.21-.56-.21a1.61,1.61,0,0,0-.41.08,1.6,1.6,0,0,1-.45.07,1.35,1.35,0,0,1-.46-.05l-.1,0h.05a.32.32,0,0,1-.3-.15h.25s-.05-.05-.15-.05-.19-.08-.16-.15H16s0,.05-.1.05a.52.52,0,0,1-.28-.13A.66.66,0,0,0,15.21,3c-.13,0-.2,0-.2.1s.17.25.51.25a.25.25,0,0,0,.15,0,3.13,3.13,0,0,1,.25.35s-.05,0-.05.11.07.09.2.17a.71.71,0,0,0,.26.13.29.29,0,0,0,.2-.1h.1c0,.07.12.1.36.1h.5l.21-.1c0,.07,0,.1.1.1.4,0,.61-.08.61-.25H18.3l.05,0v0Zm-3.35.15.46.15c.1,0,.15-.07.15-.2s-.1-.21-.31-.21a.11.11,0,0,0-.12.08c0,.05,0,.08-.08.08S15.06,3.76,15.06,3.83Zm.1-1.07.41.1s.06,0,.1-.1v0h-.05A1.14,1.14,0,0,0,15.16,2.76Zm1.12,1.47a1.79,1.79,0,0,1-.41-.05l-.3,0a.19.19,0,0,0-.16.1v.1h-.15v.18s0,0,.05.08a.49.49,0,0,0,0,.2V5h.11c.13-.13.2-.22.2-.25h-.1s.06,0,.2,0a.35.35,0,0,0,.35-.25l.16-.11Zm1.47,8.87.1.21c.13,0,.2-.14.2-.41l.1,0a.14.14,0,0,0,.1.05s.05,0,.05-.1-.06-.13-.2-.2H18a.5.5,0,0,0-.25-.1.81.81,0,0,1-.31-.15.18.18,0,0,1-.05-.11v-.1A1,1,0,0,0,17,12h0v.1l-.16-.15a0,0,0,0,0-.05.05l-.05.1h-.1a.16.16,0,0,0-.1.05,1.19,1.19,0,0,0-.51.36h.1s.05,0,.05,0,0,0,.06,0,.06.1.1.1a.25.25,0,0,0,.15-.05l.05-.05.15-.06c.07-.06.12-.1.15-.1a.11.11,0,0,1-.05.1v.06h.1c0,.06.05.1.16.1H17s0-.05.1-.05a.68.68,0,0,1,.2,0l.2,0v.1h-.3a.56.56,0,0,0-.28.12q-.18.13-.18.18l.1,0a.23.23,0,0,1,.11,0,1,1,0,0,0-.21.66c0,.1,0,.15.16.15s.15-.1.15-.3v-.2c0-.21,0-.31.05-.31l.2-.15.05-.05c.2,0,.31.07.31.2a.35.35,0,0,1,0,.13.3.3,0,0,0,0,.12A.14.14,0,0,0,17.75,13.1ZM21.8,7v-.1c.14,0,.2,0,.2-.1s-.06-.15-.2-.15-.1,0-.1,0h-.25c-.1,0-.15-.09-.15-.26-.24-.07-.36-.15-.36-.25a.3.3,0,0,1-.2-.05s.08-.09.25-.15a.12.12,0,0,0-.1,0h-.2a.2.2,0,0,1,.2-.11c0-.13-.05-.2-.15-.2h-.15v-.1a1,1,0,0,1-.46-.2c0-.07-.09-.1-.25-.1h-.16c-.06,0-.14-.06-.22-.16l-.18-.2a.93.93,0,0,0-.51-.1.28.28,0,0,0-.2.1l-.1,0-.05,0h-.11a.37.37,0,0,1-.15,0V4.69c0-.24-.08-.36-.25-.36-.47,0-.71.12-.71.36a.5.5,0,0,1,.05.15q0,.15-.15.15s-.05,0-.05-.1V4.74s-.05,0-.05,0a.26.26,0,0,1,.12-.2,1.07,1.07,0,0,0,.18-.16l-.25-.1a1.27,1.27,0,0,0-.56.26v.1a.16.16,0,0,1-.05.1.4.4,0,0,0-.1.3.29.29,0,0,0,.1.21l.18,0,.17,0v.1h-.3a.14.14,0,0,0,.08.1.13.13,0,0,1,.07.1H17a.85.85,0,0,0,.25.15h1c0,.1,0,.16.05.16a.31.31,0,0,0,.21-.13c.06-.09.12-.13.15-.13a5.86,5.86,0,0,1,.51.36.45.45,0,0,0-.21.1l.05.1a.18.18,0,0,0,.11,0,.17.17,0,0,1,.15-.05.78.78,0,0,1,.33.2c.15.14.22.24.22.3s-.06.17-.2.31l-.1,0-.05,0s0,.08.1.15a.73.73,0,0,1-.3.1H19c-.17,0-.25.07-.25.21s.1.15.3.15l0,0h.16s.05,0,.05,0,0,0,.05,0a.13.13,0,0,0,.15-.15,5.89,5.89,0,0,0,.51.35c0,.07.08.15.25.25a.25.25,0,0,1,.2.06,1.38,1.38,0,0,0,.26.07.82.82,0,0,1,.25.08.16.16,0,0,1,0,.1A0,0,0,0,0,21,8.29s.05,0,.05,0S21,8.09,20.86,8a1.49,1.49,0,0,1-.27-.2h.1A1.53,1.53,0,0,0,21.3,8a.36.36,0,0,0,.1-.25.16.16,0,0,0,0-.1l-.05,0V7.48h-.11l-.2-.1a.24.24,0,0,1-.15-.26h-.1V7h.1V7h-.15l.1,0a0,0,0,0,1,.05,0,.54.54,0,0,1,.35.23.58.58,0,0,0,.36.23s.05-.06.05-.16A.19.19,0,0,0,21.8,7Zm-4.86.71a.06.06,0,0,0,0,.1c.06-.07.15-.07.25,0s0,.1,0,.1v0h.05c.07,0,.14,0,.23,0s.13-.13.13-.2a1.12,1.12,0,0,1,.25.2h.2l.1,0a.19.19,0,0,1,.1,0,.48.48,0,0,0-.15-.1l-.15,0a0,0,0,0,1-.05,0v0a.31.31,0,0,0-.23-.15.61.61,0,0,1-.23-.11,0,0,0,0,0,0,0,.14.14,0,0,0-.05-.1l-.1-.1c-.13,0-.2.17-.2.41v.1a.09.09,0,0,1-.1.1Zm2.48,10.6a.14.14,0,0,0-.1-.06h-.1v-.05a.62.62,0,0,1-.46-.15l-.1-.1a.82.82,0,0,1-.31-.08,1,1,0,0,0-.35-.07.52.52,0,0,0-.56.3h0a1.18,1.18,0,0,1,.41-.2H18a.07.07,0,0,0,0,.1h.2a.27.27,0,0,1,.13.05.2.2,0,0,0,.13.05h.1l.05.05h.05s.08.09.25.16a.16.16,0,0,1-.1.05v.05l.23,0,.18,0c.13,0,.22,0,.25-.1ZM17.65,7.17c0-.1-.09-.13-.16-.1Zm-.06,1v.1A2.87,2.87,0,0,0,18,8h-.2Zm.76,5.42-.1-.05H18.2a.78.78,0,0,0-.3.05.09.09,0,0,1-.1.1l-.1-.1c0,.1,0,.15.1.15A2.88,2.88,0,0,0,18.35,13.56Zm-.55,4.51h-.05l-.05.05h.1a.07.07,0,0,0,0-.1Zm.15-7.2a.37.37,0,0,0,.2.05h.05c0-.06-.08-.1-.25-.1Zm.68-6.21.13,0,.1.05H19c.07,0,.1,0,.1-.1a1.19,1.19,0,0,0-.45-.26.44.44,0,0,1-.15,0l-.21,0a.1.1,0,0,0-.1.11.13.13,0,0,0,.15.15s.07.08.21.15Zm-.3,3.55s-.08,0-.08.08l.1.1s.06,0,.06-.05l.05-.1A.13.13,0,0,0,18.33,8.21Zm.73,4.89-.6.16a.14.14,0,0,0-.11.05s0,0,.06,0v0h.05Q19.12,13.31,19.06,13.1Zm-.6.41v0h0Zm.15-7.6c-.14.1-.19.16-.15.2S18.61,6,18.61,5.91Zm.15,11.15s0,0-.1,0l-.1,0Zm-.1-9.18s.08,0,.15,0Zm0,9.48c0,.1,0,.15.1.15v-.05s0,0,0-.05a0,0,0,0,0-.05-.05ZM19,18.78a.19.19,0,0,1-.1-.05.16.16,0,0,0-.1-.05,0,0,0,0,0,0,.05c0,.07,0,.1.1.1h.2c0-.07,0-.1,0-.1ZM18.86,6.46a.25.25,0,0,0,.05.16H19c.17,0,.26-.06.26-.16s-.07-.16-.21-.17S18.86,6.33,18.86,6.46Zm.05,10.65s0,0,0,.05Zm.66-10.7-.1-.1a.09.09,0,0,0-.1.1s0,0,.1,0S19.57,6.45,19.57,6.41Zm1,12.32a1.06,1.06,0,0,0-.4-.2h-.2a.18.18,0,0,1-.11-.05h-.05s-.05,0-.05.05,0,.1.05.1a.16.16,0,0,0,.05.1h-.35a.16.16,0,0,0,.05.1l.05.05v-.05h.1a.55.55,0,0,1,.31,0l.05.05a.32.32,0,0,0,.15-.05l.05,0h.1l.05-.05h.26l-.11-.1-.05-.05Zm.21-6.44a0,0,0,0,1,.05.05Zm.05.16s.05,0,.05-.06v.06Zm.05.1v0Zm0,.1v0Zm.56-1a.66.66,0,0,1,.5.16s0,.05-.1.05A1.11,1.11,0,0,1,21.4,11.68Zm1.19.59.12,0h.11a.11.11,0,0,0,.1.05l.1-.05h.15l0,.05,0,.11h0c.07,0,.14-.07.2-.21v.1c0,.07,0,.11,0,.11h.06l0,.05c.1,0,.15-.05.15-.16v-.05a.11.11,0,0,1-.05-.1l-.08.08s0,0,0,0a.16.16,0,0,0,0-.1s0-.05,0-.05,0,0,0-.05h0v-.25c-.11,0-.17,0-.21,0h-.2v-.11s0,0-.1,0l-.05,0h0v0a.14.14,0,0,1,0-.1.63.63,0,0,0,.1-.12.31.31,0,0,0,.05-.13l-.05,0s-.1.07-.2.2a2.6,2.6,0,0,1-.41.56s.05,0,.05,0,0,0,0,0,0,.08-.15.15l.05.05Z"/></svg>