<svg id="bb0d615d-72d5-4cfe-b350-731f0fbd7f0f" data-name="Livello 1" xmlns="http://www.w3.org/2000/svg" viewBox="0 0 25 25"><path d="M3.27,9.15l1.58-.81,2-.66.26-1,.4-.35.36.35.3-.35.1-.71,1-.66.76.25.15.61.76-.25.51-1.37.4.1L12.3,4l1.77.11v.6l-.56.76L15.69,7l.71-.71v-2l.66-.86.26.91.25.15v.91l.66.11.15,1,.36.05V7.79l1,.3.56.71.15.61,1.47,1.37.1,1.31.2.41-.56,2.38-.45.21-.76,2.12.1.71H19.8l-1,.61-.66-.25v-.51l-.51.26-.2.5L15.74,18l-.25-1.53-.56.46H14l.05-.4.76-.11.2-.55-.6-.76-.81,1.21-.36-.86-.51-.4v-.36l-.81-.15-.56-.36-2.28.61-.86.31-.3.4H6l-1,.81L3.73,15.9v-.61h.36l.15-1L3,11.38V11l-.2-.86.56-.36Zm14.6,10.7.26-.1.5.25.66-.2.15-.66h.26l.1,1-.3,1.22-.31.2h-.66l-.4-.76-.05-.35-.41-.31Z"/></svg>